<?xml version="1.0" encoding="UTF-8" standalone="no"?>
<!-- Created with Inkscape (http://www.inkscape.org/) -->

<svg
   width="41.120621mm"
   height="41.120621mm"
   viewBox="0 0 41.120621 41.120621"
   version="1.1"
   id="svg1"
   inkscape:version="1.4.3 (0d15f75, 2025-12-25)"
   sodipodi:docname="Haltestelle-icon.svg"
   xmlns:inkscape="http://www.inkscape.org/namespaces/inkscape"
   xmlns:sodipodi="http://sodipodi.sourceforge.net/DTD/sodipodi-0.dtd"
   xmlns="http://www.w3.org/2000/svg"
   xmlns:svg="http://www.w3.org/2000/svg">
  <sodipodi:namedview
     id="namedview1"
     pagecolor="#ffffff"
     bordercolor="#000000"
     borderopacity="0.25"
     inkscape:showpageshadow="2"
     inkscape:pageopacity="0.0"
     inkscape:pagecheckerboard="0"
     inkscape:deskcolor="#d1d1d1"
     inkscape:document-units="mm"
     inkscape:zoom="1.0022096"
     inkscape:cx="141.68693"
     inkscape:cy="-71.342362"
     inkscape:window-width="2560"
     inkscape:window-height="1369"
     inkscape:window-x="4472"
     inkscape:window-y="-8"
     inkscape:window-maximized="1"
     inkscape:current-layer="layer1" />
  <defs
     id="defs1" />
  <g
     inkscape:label="Ebene 1"
     inkscape:groupmode="layer"
     id="layer1"
     transform="translate(-67.468743,-167.48126)">
    <g
       id="g15562"
       transform="matrix(0.1141949,-0.00255002,-0.00255002,-0.1141949,67.932979,209.05588)">
      <path
         id="path15556"
         style="fill:#f0c900;fill-opacity:1;fill-rule:evenodd;stroke:none"
         d="m 180,0.002 c -99.41,0 -180,80.586 -180,180 0,99.41 80.59,180 180,180 99.41,0 180,-80.59 180,-180 0,-99.414 -80.59,-180 -180,-180 z" />
      <path
         id="path15558"
         style="fill:#008754;fill-opacity:1;fill-rule:evenodd;stroke:none"
         d="m 352,180.002 c 0,96.566 -78.785,172 -172.027,172 C 86.727,352.002 8,276.568 8,180.002 c 0,-96.566 78.727,-172 171.973,-172 93.242,0 172.027,75.434 172.027,172 z m -48,0 c 0,-68.484 -55.516,-124 -124,-124 -68.484,0 -124,55.516 -124,124 0,68.484 55.516,124 124,124 68.484,0 124,-55.516 124,-124 z" />
      <path
         id="path15560"
         style="fill:#008754;fill-opacity:1;fill-rule:nonzero;stroke:none"
         d="m 113.258,260.002 c -0.696,0 -1.258,-0.562 -1.258,-1.262 V 101.26 c 0,-0.695 0.562,-1.258 1.258,-1.258 h 33.484 c 0.696,0 1.258,0.563 1.258,1.258 v 60.742 h 64 V 101.26 c 0,-0.695 0.562,-1.258 1.258,-1.258 h 33.484 c 0.696,0 1.258,0.563 1.258,1.258 v 157.48 c 0,0.7 -0.562,1.262 -1.258,1.262 h -33.484 c -0.696,0 -1.258,-0.562 -1.258,-1.262 v -60.738 h -64 v 60.738 c 0,0.7 -0.562,1.262 -1.258,1.262 z" />
    </g>
  </g>
</svg>
