<?xml version="1.0" encoding="UTF-8"?>
<svg width="790.27mm" height="912.22mm" version="1.1" viewBox="0 0 790.27 912.22" xml:space="preserve" xmlns="http://www.w3.org/2000/svg" xmlns:xlink="http://www.w3.org/1999/xlink"><defs><clipPath><rect width="512" height="512"/></clipPath><clipPath><rect width="588" height="645"/></clipPath><clipPath><rect width="588" height="645"/></clipPath><style>.cls-1{fill-rule:evenodd;}</style></defs><g transform="translate(254.88 351.19)"><rect x="-254.88" y="-351.19" width="790.27" height="912.22" fill="#502d16" stroke-linecap="round" stroke-width="4.9425"/><g transform="matrix(.065852 0 0 .065852 130.49 48.647)"><g transform="translate(57.001 1222.7)" fill="#fff"><path d="m218.73 57.95a1.25 1.25 0 0 1-1.3-1.19l-0.11-2.16a8.16 2.76 87.2 0 1 2.36-8.29l0.56-0.03a8.16 2.76 87.2 0 1 3.15 8.02l0.11 2.17a1.25 1.25 0 0 1-1.19 1.31z"/><path d="m225.02 62.29a1.02 1.02 0 0 1 1.17 0.85l0.05 0.32a4.12 3.23-9.1 0 1-3.55 3.84l-0.99 0.16a4.12 3.23-9.1 0 1-4.58-2.54l-0.05-0.32a1.02 1.02 0 0 1 0.84-1.17z"/><path d="m228.68 72.32a0.53 0.53 0 0 1 0.56 0.5l0.07 0.94a5.03 4.12-3.9 0 1-4.74 4.46l-1.66 0.11a5.03 4.12-3.9 0 1-5.3-3.77l-0.06-0.95a0.53 0.53 0 0 1 0.49-0.56z"/><path d="m226.93 84.01a0.04 0.04 0 0 1 0.04 0.04l-0.01 0.08a6.91 5.9 3.3 0 1-7.23 5.5l-0.4-0.03a6.91 5.9 3.3 0 1-6.56-6.28v-0.08a0.04 0.04 0 0 1 0.04-0.04z"/><path d="m203.56 90.27c0.79 0.05 2.01 1.34 3.26 2.38a3.35 3.3-18.8 0 0 1.49 0.72c2.53 0.51 5.18 0.76 5.7 2.86a2.45 2.36 67.7 0 1-1.04 2.63c-4.89 3.04-10.29-2.25-11.13-6.6a1.68 1.65 86.3 0 1 1.72-1.99z"/><path d="m190.76 98.49a0.87 0.87 0 0 1 1.28-0.24q2.35 1.78 5.17 2.55c6.29 1.71 3.81 6.78-0.88 7.9a1.36 1.32-36.5 0 1-0.96-0.13c-2.99-1.62-6.76-6.54-4.61-10.08z"/><path d="m178.55 108.97q2.61 2.25 5.27 2.37 2.54 0.11 3.35 1.11c2.04 2.52 1.94 6.02-1.68 6.82-6.16 1.37-10.55-3.73-8.9-9.7a1.22 1.21-62 0 1 1.96-0.6z"/><path d="m182.11 128.71a0.74 0.74 0 0 1 0.4 0.97l-0.06 0.13a7.78 7.78 0 0 1-10.18 4.16l-0.17-0.07a7.78 7.78 0 0 1-4.16-10.19l0.06-0.13a0.74 0.74 0 0 1 0.97-0.39z"/><path d="m160.74 144.67a2.04 1.73 29.9 0 1 2.71-0.5q2.96 1.82 5.97 0.89a3.54 3.53 13.2 0 0 1.47-0.91l2.36-2.45a1.26 1.26 0 0 1 2.09 0.43c1.43 3.87-1.29 8.12-4.09 10.61-5.6 4.98-9.64-1.26-10.6-6.11q-0.26-1.31 0.09-1.96z"/><path d="m271.43 165.46a0.45 0.44-4.9 0 1-0.61-0.51q0.51-2.14 1.18-3.07a1.88 1.87 4.1 0 0-2.42-2.79l-2.13 1.28a0.89 0.88-10.8 0 1-1.33-0.9q0.19-1.13 1.81-3.26a0.93 0.93 0 0 0-0.98-1.46l-2.14 0.56a0.46 0.46 0 0 1-0.47-0.75q1.95-2.22 2.48-3.76c2.07-6.09 8.08-3.37 11.3-0.36q21.01 19.61 22.73 21.44c5.8 6.18 5.41 13.31 3.41 20.71a1.02 1.01 5.9 0 1-0.93 0.75c-13.48 0.85-19.3-8-23.33-19.29a0.45 0.45 0 0 0-0.75-0.15l-1.6 1.66a0.58 0.57-31.9 0 1-0.96-0.22q-0.79-2.45 1.19-4.29a1.06 1.06 0 0 0 0.35-0.87q-0.05-0.76-0.78-1.97a0.6 0.6 0 0 0-0.81-0.21l-2 1.16a0.85 0.85 0 0 1-1.22-1.03q0.58-1.54 1.75-2.86a1.29 1.28-39.5 0 0 0.15-1.5l-0.17-0.3a0.57 0.56 51.8 0 0-0.9-0.11q-1.5 1.54-2.82 2.1zm21.18 7.51q0.54 1.3 1.8 3.43 1.21 2.06 1.24 8.66a2 2 0 0 0 2.57 1.91l0.21-0.07a3.57 3.57 0 0 0 2.56-3.49c-0.1-4.61-2.46-10.38-7.59-11.4a0.71 0.7 84.5 0 0-0.79 0.96z"/><path d="m172.46 161.88c2.17-0.69 4.76 0.06 5.14 2.58 0.75 4.98-3.38 9.39-7.72 10.85-4.5 1.52-9.57-0.46-12.33-4.33q-1.16-1.63-0.97-3.37a2.3 2.28 0.1 0 1 2.05-2.02c3.5-0.37 6.81 2.21 10.05-0.41q0.54-0.44 2.89-2.77a2.25 2.21 13.7 0 1 0.89-0.53z"/><path d="m270.13 182.03a0.3 0.29-44.7 0 0 0.51 0q1.1-1.88 2.6-2.65a0.5 0.49-1.3 0 1 0.68 0.64q-1.28 2.8-1.33 4.82a1.46 1.43 23.2 0 0 0.45 1.09l2.52 2.43a0.47 0.47 0 0 0 0.76-0.16q0.6-1.46 1.55-2.41a0.5 0.5 0 0 1 0.84 0.44l-0.59 3.45a1.07 1.05 22.8 0 0 0.44 1.04q7.82 5.5 19.29 5.44a1.15 1.15 0 0 1 1.02 0.62q2.2 4.31 0.58 8.34c-2.99 7.4-12.64 7.09-18.89 5.25-15.38-4.53-27.64-15.01-39.19-26-2.32-2.2-4.73-5.41-2.64-8.71q5.21-8.24 13.6-10.75a0.96 0.93 89.1 0 0 0.65-0.69q0.31-1.34 1.24-2.31a0.36 0.36 0 0 1 0.62 0.31l-0.25 1.44a1.68 1.68 0 0 0 2.68 1.61l2.07-1.59a0.69 0.69 0 0 1 1.06 0.82q-1.2 2.77 2.12 4.81a0.95 0.95 0 0 0 1.3-0.31q0.67-1.07 1.66-1.27a0.99 0.99 0 0 1 1.07 1.44l-1.3 2.38a1.53 1.52-36.3 0 0-0.15 0.97q0.21 1.25 1.22 2.24a0.64 0.64 0 0 0 0.91-0.01l1.75-1.82a0.46 0.46 0 0 1 0.78 0.45l-1.38 4.61a1.6 1.58 38.5 0 0 0.15 1.26zm-22.6-8.17c-3.99 2.22-6.62 6.56-2.75 10.42a1.68 1.68 0 0 0 2.62-0.33c1.7-2.82 4.17-7.33 1.21-9.97a0.93 0.92 51.1 0 0-1.08-0.12zm31.53 25.62-9.69-5.08a1.66 1.66 0 0 0-2.24 0.7l-0.11 0.21a6.76 6.48 27.7 0 0 2.97 8.88l0.66 0.34a6.76 6.48 27.7 0 0 9-2.59l0.11-0.22a1.66 1.66 0 0 0-0.7-2.24z"/><path d="m160.84 188.42a2.27 2.01 3.7 0 1 2.34-1.82c4.2 0.18 8.22 1.23 10.76-2.19 1.83-2.45 4.4-5.07 7.51-2.9q2.77 1.95 1.68 5.56c-2.06 6.77-8.74 11.19-15.61 8.43-2.57-1.03-6.94-3.97-6.68-7.08z"/><path d="m338.29 192.71q-3.32 6.21-1.87 13.47c0.67 3.32-3.4 3.43-4.39 1.16q-2.76-6.33-1.39-13.16c0.67-3.35 5.24-7 7.64-2.68a1.25 1.24-45.7 0 1 0.01 1.21z"/><path d="m344.9 205.4a1.67 1.67 0 0 1-3.02-0.3c-2.95-8.67 6.49-13.63 13.83-13.76a2.91 2.9 76.6 0 1 2.68 1.65l0.05 0.12a1.37 1.37 0 0 1-1.1 1.96q-5.78 0.58-9.52 5.06c-1.42 1.7-1.97 3.61-2.92 5.27z"/><path d="m322.79 211.99a2.14 2.12-42.6 0 1-2.93-0.11c-3.05-3.15-3.62-10.4-2.97-14.42a3.77 3.77 0 0 1 3.29-3.15l0.37-0.06a2.08 2.07-89.8 0 1 2.38 2.4l-0.95 5.56a2.27 2.22 44.3 0 0 0.02 0.84q1.28 5.62 1.37 6.75 0.12 1.57-0.58 2.19z"/><path d="m313.41 196.61c-0.59 0.83-1.65 1.55-2.47 2.59-3.4 4.33-3.25 9.71-0.64 14.53a1.31 1.31 0 0 1-0.93 1.92c-5.31 0.91-5.73-6.9-5.84-10.65-0.17-6.13 3.06-9.63 9.6-8.99a0.38 0.38 0 0 1 0.28 0.6z"/><path d="m172.75 207.99c2.57-1.26 4.99-0.35 7.36-3.14 2.44-2.88 3.88-5.45 6.92-6.35 3.43-1.02 5.26 2.1 5.41 5.25 0.54 11.4-14.03 16.36-20.36 6.69a1.7 1.7 0 0 1 0.67-2.45z"/><path d="m361.94 205.31c-3.2 0.49-5.75 1.78-8.68 3.27a1.84 1.84 0 0 1-2.62-1.17c-1.22-4.65 7.13-6.39 10.55-6.92s11.91-1.4 12.16 3.4a1.84 1.84 0 0 1-2.14 1.91c-3.24-0.54-6.07-0.99-9.27-0.49z"/><path d="m185.31 226.3c0.2-2.82 4.19-3.58 7.16-4.56a4.13 4.11-0.1 0 0 2.64-2.63c0.56-1.72 0.72-3.16 1.82-4.66q2.35-3.2 6.76-2.11c3.79 0.94 2.3 6.45 1.84 9q-1.48 8.22-10.42 8.85c-3.21 0.23-7.33-0.04-9.51-2.92a1.42 1.42 0 0 1-0.29-0.97z"/><path d="m347.61 215.52q0.57-1.06 1.99-1.62c5.76-2.26 13.37-2.75 18.12 1.63 1.63 1.51 4.66 6.03 2.87 7.84a3.08 3.03-51.8 0 1-3.78 0.48c-2.57-1.58-5.84-3.93-8.55-4.39q-3.41-0.58-6.66-0.25c-1.51 0.15-5.31-1.22-3.99-3.69z"/><path d="m353.35 227.39c2.6 3.64-1.76 5.98-4.88 4.03q-5.9-3.7-7.96-4.92a2.02 2.02 0 0 1 0.09-3.53q0.63-0.34 2.91-0.33 6.49 0.05 9.84 4.75z"/><path d="m412.15 223.28c4.26 2.78 3.62 10.06 2.17 14.54a2.14 2.13 15.8 0 1-2.54 1.41l-0.07-0.02a1.83 1.83 0 0 1-1.32-2.31q1.71-5.74 1.51-8.15-0.44-5.07-0.44-5.12a0.45 0.44-71.8 0 1 0.69-0.35z"/><path d="m406.82 234.58-0.87 2.92a1.02 1.01 41.9 0 1-1.91 0.1q-3.48-8.31 0.8-12.52a2.51 2.5-60.9 0 1 2.29-0.66l0.27 0.06a0.82 0.82 0 0 1 0.41 1.38q-3.37 3.34-1.09 7.68a1.34 1.34 0 0 1 0.1 1.04z"/><path d="m197.72 238.04c1.32-2.54 7.37-2.07 10.44-5.46 1.97-2.18 1.52-7.16 5.62-7.14q3.28 0.01 5.24 1.89a1.11 1.1-62.6 0 1 0.32 1.02q-1.17 6.03-2.19 8c-3.97 7.62-11.89 8.41-18.7 3.88a1.85 1.59 30.9 0 1-0.73-2.19z"/><path d="m379.5 260.83c-1.08-2.44-2.08-7.85-3.31-11.16q-4.35-11.65-8.96-19.08a2.42 2.41-17.7 0 1 1.9-3.68l1.89-0.12a7.4 7.39 67.5 0 1 6.03 2.51q2.58 2.92 3.33 6.08c0.82 3.45 4.54 22.64 1.77 25.84a1.59 1.58 53.3 0 1-2.65-0.39z"/><path d="m339.77 242.18c-1.1-0.86-1.59-2.98-3.11-4.2q-2.2-1.77-3.57-3.52a3.08 2.72 42.9 0 1-0.33-3.28c1.49-2.48 3.98-1.36 5.7 0.35q3.58 3.55 3.36 9.7a1.27 1.27 0 0 1-2.05 0.95z"/><path d="m269.42 261.11q-8.53 0.79-16.14-1.13c-4.62-1.17-14.01-3.17-16.76-6.32-5.31-6.09 1.97-14.36 7.62-17.37 11.65-6.2 29.85-9.94 40.47 0.57 1.54 1.52 2.14 4.52 3.45 6.38 2.89 4.09 4.91 8.74 2.07 12.93-1.88 2.78-6.27 3.65-8.38 0.58q-2.34-3.42-3.1-4.32c-6.76-7.92-17.51 2.76-9.11 8.16a0.28 0.28 0 0 1-0.12 0.52z"/><path d="m213.97 250.17a1.21 1.21 0 0 1 0.54-1.62c7.11-3.54 8.73-6.28 10.2-14.03a2 1.97 71.2 0 1 0.46-0.95c2.98-3.43 5.82-1.35 8.24 1.56a1.38 1.36-59.2 0 1 0.28 1.14c-1.21 6.14-4.95 13.29-11.21 15.22-2.38 0.73-7.31 1.09-8.51-1.32z"/><path d="m370.02 269.56-0.1 0.03a1.36 1.36 0 0 1-1.75-1.38q0.88-15.42-10.14-28.75a4.28 4.28 0 0 1 0.58-6.03l0.04-0.04a3.88 3.88 0 0 1 5.59 0.69q10.36 14.05 7.83 33.07a2.93 2.93 0 0 1-2.05 2.41z"/><path d="m420.01 234.31a1.5 1.49 87.5 0 1 1.56 1.44c0.11 2.7-4.91 7.41-6.38 8.91q-1.19 1.23-2.38 0.88c-1.57-0.46-1.27-2.37-1.07-3.41a1.06 1.05 86.7 0 1 0.71-0.8q4.97-1.56 6.96-6.52a0.75 0.73-3.6 0 1 0.35-0.39q0.22-0.1 0.25-0.11z"/><path d="m327.43 249.6a1.74 1.73 61.7 0 1-2.77-0.84q-0.44-1.44-0.91-2.55a4.86 4.65-79.5 0 0-0.93-1.42q-2.93-3.05-3.16-3.59c-0.82-1.94-0.1-4.41 2.4-3.99 4.11 0.69 8.96 9.37 5.37 12.39z"/><path d="m384.22 267.7a3.28 3.27 39.4 0 1-0.49-4.96l22.67-23.57a1.55 1.54-36.4 0 1 2.5 0.37c1.57 3.13-0.09 6.37-2.21 8.92q-2.54 3.05-16.05 18.74a4.55 4.54-51.3 0 1-6.15 0.69z"/><path d="m348.57 239.78 0.15-0.09a3.11 3.11 0 0 1 4.32 1.22q8.18 15.4 6.08 33.87a2.48 2.47-5.4 0 1-1.73 2.09l-0.08 0.03a1.28 1.28 0 0 1-1.65-1.22q-0.08-10.58-3.68-19.95-1.2-3.12-4.91-11.17a3.73 3.73 0 0 1 1.5-4.78z"/><path d="m295.47 255.02-3.13-11.94a2.62 2.62 0 0 1 3.29-3.18l0.78 0.23a5.89 5.88 4.5 0 1 4.14 4.84q0.8 5.88-2.1 10.5a1.64 1.64 0 0 1-2.98-0.45z"/><path d="m309.78 255.62c-2.25-1.36-3.95-10.24-4.11-11.82-0.33-3.33 3.6-2.96 5.27-2a2.25 2.23 88.6 0 1 0.75 0.72c1.95 3 3.19 9.96 0.66 12.71a2.08 2.03-53 0 1-2.57 0.39z"/><path d="m417.26 248.33a0.25 0.25 0 0 1 0.21 0.29l-0.06 0.4a3.33 2.4 8.6 0 1-3.65 1.88l-1.68-0.25a3.33 2.4 8.6 0 1-2.93-2.88l0.06-0.4a0.25 0.25 0 0 1 0.28-0.21z"/><path d="m344.63 280.37c-0.41-1.87-0.09-4.49-0.44-6.61q-1.44-8.88-3.62-13.2-3.13-6.2-4.07-8.53a3.62 3.61 69.5 0 1 2.17-4.76l0.17-0.06a3.45 3.44-18.6 0 1 4.39 2.18c2.15 6.54 8.21 26.91 3.1 31.52a1.03 1.03 0 0 1-1.7-0.54z"/><path d="m336.06 279.54-0.05 0.04a1.59 1.59 0 0 1-2.3-0.36q-5.49-8.17-8.81-19.89-1.08-3.82-0.04-5.91a1.33 1.3-79.9 0 1 1.03-0.73q2.88-0.33 5.09 1.55a1.41 1.39-71.2 0 1 0.5 1.03q0.39 10.93 5.23 21.59a2.23 2.22 58.7 0 1-0.65 2.68z"/><path d="m318.33 257.51q1.13 10.78 8.52 20.28a1.49 1.48 64.7 0 1-0.84 2.36l-0.25 0.06a3.62 3.61 64 0 1-3.57-1.23q-5.97-7.22-9.03-15.41c-1.52-4.06-1.02-7.89 4.53-6.77a0.83 0.81-87.6 0 1 0.64 0.71z"/><path d="m314.45 280.21-0.05 0.04a2.08 2.07 41.6 0 1-2.54 0.15q-9.16-6.27-13.21-16.69c-2.12-5.47 2.84-7.75 6.59-4.27q1.05 0.98 1.5 4.38 1.04 7.95 7.74 14.18a1.49 1.48 46 0 1-0.03 2.21z"/><path d="m298.48 272.15a0.88 0.88 0 0 1-1.08 1.08q-15.52-4.15-32.02-2.08c-3.51 0.44-8.46-3.36-4.24-6.68q2.11-1.67 5.12-0.9 6.19 1.58 10.62 1.56c7.02-0.03 13.47-0.35 18.85 3.45q2.22 1.57 2.75 3.57z"/><path d="m297.26 275.75a0.79 0.79 0 0 1 0.33 0.92c-3.36 9.93-15.8 9.77-23.06 13.35q-3.47 1.72-6.92 5.32c-3.03 3.17-10.35 2.86-8.18-3.45 0.69-2 3.03-3.28 5.29-4.23 7.77-3.27 10.83-5.9 17.31-11.14q7.19-5.81 15.23-0.77z"/><path d="m322.4 319.57-0.07-0.01a1.71 1.71 0 0 1-1.4-2.16q2.23-7.7-5.38-10.77c-3.12-1.25-6.25-1.15-9.74-1.08q-29.54 0.54-31.3 0.56c-3.12 0.02-5.77-0.61-7.26-3.57-1.03-2.04 0.87-4.6 2.75-4.61q8.69-0.03 38.76 1.97 0.95 0.07 5.45 1.15c7.85 1.88 13.55 8.45 10.69 16.98a2.31 2.3 13.3 0 1-2.5 1.54z"/><path d="m308.49 307.93a0.8 0.8 0 0 1 0.82-0.88c9.91 0.38 6.28 15.22-0.86 15.77a1.57 1.57 0 0 1-1.5-2.32q0.57-1.04 1.67-2.28c2.42-2.74 2.75-5.55 0.38-8.7q-0.23-0.3-0.33-0.75-0.16-0.7-0.18-0.84z"/></g><g transform="translate(57.001 1222.7)" fill="#713e21"><path d="m390.19 231.04c5.11 1.92 5.89-3.29 6.93-7.02 1.35-4.83 4.79-7.51 9.72-8.38q11.97-2.12 18.12 9.17 0.56 1.03 1.77 5.92c1.66 6.69-0.33 15.31-3.09 21.2-7.21 15.42-22.23 26.46-38.16 31.08q-17.02 4.95-35.99 4.22-9.56-0.37-21.72-1.12-2.81-0.17-6.37 1.75t-2.84 6.8q0.21 1.35 3 3.29c3.68 2.55 9.11 2.81 12.01 7.6 2.63 4.34 1.26 10.4-1.53 14.3-3.73 5.22-10.93 8.79-17.17 11.74-6.75 3.19-14.86 5.02-20.47-0.71q-0.7-0.71-3.85-4.94-5.19-6.98-13.98-9.03-14.17-3.32-15.71-3.73c-9.3-2.48-20.74-10.47-16.81-21.79 1.57-4.53 2.52-9.2-0.91-13.21q-5.21-6.08-11.15-8.71-27.18-12.06-48.3-29.36-11.08-9.07-20.5-22.18-18.48-25.71-16.94-57.62 1.8-37.2 26.95-62.86c6.64-6.77 16.5-14.02 23.58-20.41 6.17-5.57 11.58-11.6 13.26-19.49q0.41-1.94 1.53-9.84a2.87 2.84 60.6 0 1 0.17-0.62q1.51-3.74 5.57-4.14 5.88-0.57 11.33-0.46a3.64 3.64 0 0 1 3.12 1.92c8.8 16.44 8.24 36.11-0.59 52.49q-5.9 10.93-15.62 17.17-11.74 7.55-14.94 9.74c-11.94 8.16-17.02 22.34-15.13 36.48q1.61 12.01 8.55 23.47 15.45 25.5 42.21 39.47c4.37 2.28 11.6 4.7 15.96 1.01q4.69-3.96 1.73-10.45c-4.2-9.23-13.87-10.17-20.82-16.59-7.13-6.58-6.11-17.32-1.52-24.9q2.68-4.43 6.73-8.5c7.39-7.42 15.41-14.84 24.33-20.38q7.43-4.62 15.64-5.27 17.87-1.41 23.92 14.61c4.63 12.29 6.8 21.36 18.13 26.67 3.77 1.77 9.57 3.5 14.34 3.95q9.57 0.9 21.76 1.72c10.76 0.72 21.76 5.7 27.34 15.62 3.6 6.41 0.57 13.97 0.19 21.09-0.24 4.43 2.07 7.67 6.22 9.23zm-171.46-173.09 3.58-0.17a1.25 1.25 0 0 0 1.19-1.31l-0.11-2.17a8.16 2.76 87.2 0 0-3.15-8.02l-0.56 0.03a8.16 2.76 87.2 0 0-2.36 8.29l0.11 2.16a1.25 1.25 0 0 0 1.3 1.19zm6.29 4.34-7.11 1.14a1.02 1.02 0 0 0-0.84 1.17l0.05 0.32a4.12 3.23-9.1 0 0 4.58 2.54l0.99-0.16a4.12 3.23-9.1 0 0 3.55-3.84l-0.05-0.32a1.02 1.02 0 0 0-1.17-0.85zm3.66 10.03-10.64 0.73a0.53 0.53 0 0 0-0.49 0.56l0.06 0.95a5.03 4.12-3.9 0 0 5.3 3.77l1.66-0.11a5.03 4.12-3.9 0 0 4.74-4.46l-0.07-0.94a0.53 0.53 0 0 0-0.56-0.5zm-1.75 11.69-14.12-0.81a0.04 0.04 0 0 0-0.04 0.04v0.08a6.91 5.9 3.3 0 0 6.56 6.28l0.4 0.03a6.91 5.9 3.3 0 0 7.23-5.5l0.01-0.08a0.04 0.04 0 0 0-0.04-0.04zm-23.37 6.26a1.68 1.65 86.3 0 0-1.72 1.99c0.84 4.35 6.24 9.64 11.13 6.6a2.45 2.36 67.7 0 0 1.04-2.63c-0.52-2.1-3.17-2.35-5.7-2.86a3.35 3.3-18.8 0 1-1.49-0.72c-1.25-1.04-2.47-2.33-3.26-2.38zm-12.8 8.22c-2.15 3.54 1.62 8.46 4.61 10.08a1.36 1.32-36.5 0 0 0.96 0.13c4.69-1.12 7.17-6.19 0.88-7.9q-2.82-0.77-5.17-2.55a0.87 0.87 0 0 0-1.28 0.24zm-12.21 10.48a1.22 1.21-62 0 0-1.96 0.6c-1.65 5.97 2.74 11.07 8.9 9.7 3.62-0.8 3.72-4.3 1.68-6.82q-0.81-1-3.35-1.11-2.66-0.12-5.27-2.37zm3.56 19.74-13.14-5.52a0.74 0.74 0 0 0-0.97 0.39l-0.06 0.13a7.78 7.78 0 0 0 4.16 10.19l0.17 0.07a7.78 7.78 0 0 0 10.18-4.16l0.06-0.13a0.74 0.74 0 0 0-0.4-0.97zm-21.37 15.96q-0.35 0.65-0.09 1.96c0.96 4.85 5 11.09 10.6 6.11 2.8-2.49 5.52-6.74 4.09-10.61a1.26 1.26 0 0 0-2.09-0.43l-2.36 2.45a3.54 3.53 13.2 0 1-1.47 0.91q-3.01 0.93-5.97-0.89a2.04 1.73 29.9 0 0-2.71 0.5zm110.69 20.79q1.32-0.56 2.82-2.1a0.57 0.56 51.8 0 1 0.9 0.11l0.17 0.3a1.29 1.28-39.5 0 1-0.15 1.5q-1.17 1.32-1.75 2.86a0.85 0.85 0 0 0 1.22 1.03l2-1.16a0.6 0.6 0 0 1 0.81 0.21q0.73 1.21 0.78 1.97a1.06 1.06 0 0 1-0.35 0.87q-1.98 1.84-1.19 4.29a0.58 0.57-31.9 0 0 0.96 0.22l1.6-1.66a0.45 0.45 0 0 1 0.75 0.15c4.03 11.29 9.85 20.14 23.33 19.29a1.02 1.01 5.9 0 0 0.93-0.75c2-7.4 2.39-14.53-3.41-20.71q-1.72-1.83-22.73-21.44c-3.22-3.01-9.23-5.73-11.3 0.36q-0.53 1.54-2.48 3.76a0.46 0.46 0 0 0 0.47 0.75l2.14-0.56a0.93 0.93 0 0 1 0.98 1.46q-1.62 2.13-1.81 3.26a0.89 0.88-10.8 0 0 1.33 0.9l2.13-1.28a1.88 1.87 4.1 0 1 2.42 2.79q-0.67 0.93-1.18 3.07a0.45 0.44-4.9 0 0 0.61 0.51zm-99.86-3.05q-2.35 2.33-2.89 2.77c-3.24 2.62-6.55 0.04-10.05 0.41a2.3 2.28 0.1 0 0-2.05 2.02q-0.19 1.74 0.97 3.37c2.76 3.87 7.83 5.85 12.33 4.33 4.34-1.46 8.47-5.87 7.72-10.85-0.38-2.52-2.97-3.27-5.14-2.58a2.25 2.21 13.7 0 0-0.89 0.53zm98.56 19.62-1.6-2.78a1.6 1.58 38.5 0 1-0.15-1.26l1.38-4.61a0.46 0.46 0 0 0-0.78-0.45l-1.75 1.82a0.64 0.64 0 0 1-0.91 0.01q-1.01-0.99-1.22-2.24a1.53 1.52-36.3 0 1 0.15-0.97l1.3-2.38a0.99 0.99 0 0 0-1.07-1.44q-0.99 0.2-1.66 1.27a0.95 0.95 0 0 1-1.3 0.31q-3.32-2.04-2.12-4.81a0.69 0.69 0 0 0-1.06-0.82l-2.07 1.59a1.68 1.68 0 0 1-2.68-1.61l0.25-1.44a0.36 0.36 0 0 0-0.62-0.31q-0.93 0.97-1.24 2.31a0.96 0.93 89.1 0 1-0.65 0.69q-8.39 2.51-13.6 10.75c-2.09 3.3 0.32 6.51 2.64 8.71 11.55 10.99 23.81 21.47 39.19 26 6.25 1.84 15.9 2.15 18.89-5.25q1.62-4.03-0.58-8.34a1.15 1.15 0 0 0-1.02-0.62q-11.47 0.06-19.29-5.44a1.07 1.05 22.8 0 1-0.44-1.04l0.59-3.45a0.5 0.5 0 0 0-0.84-0.44q-0.95 0.95-1.55 2.41a0.47 0.47 0 0 1-0.76 0.16l-2.52-2.43a1.46 1.43 23.2 0 1-0.45-1.09q0.05-2.02 1.33-4.82a0.5 0.49-1.3 0 0-0.68-0.64q-1.5 0.77-2.6 2.65a0.3 0.29-44.7 0 1-0.51 0zm-109.29 6.39c-0.26 3.11 4.11 6.05 6.68 7.08 6.87 2.76 13.55-1.66 15.61-8.43q1.09-3.61-1.68-5.56c-3.11-2.17-5.68 0.45-7.51 2.9-2.54 3.42-6.56 2.37-10.76 2.19a2.27 2.01 3.7 0 0-2.34 1.82zm177.44 3.08c-2.4-4.32-6.97-0.67-7.64 2.68q-1.37 6.83 1.39 13.16c0.99 2.27 5.06 2.16 4.39-1.16q-1.45-7.26 1.87-13.47a1.25 1.24-45.7 0 0-0.01-1.21zm6.62 13.9c0.95-1.66 1.5-3.57 2.92-5.27q3.74-4.48 9.52-5.06a1.37 1.37 0 0 0 1.1-1.96l-0.05-0.12a2.91 2.9 76.6 0 0-2.68-1.65c-7.34 0.13-16.78 5.09-13.83 13.76a1.67 1.67 0 0 0 3.02 0.3zm-22.11 6.59q0.7-0.62 0.58-2.19-0.09-1.13-1.37-6.75a2.27 2.22 44.3 0 1-0.02-0.84l0.95-5.56a2.08 2.07-89.8 0 0-2.38-2.4l-0.37 0.06a3.77 3.77 0 0 0-3.29 3.15c-0.65 4.02-0.08 11.27 2.97 14.42a2.14 2.12-42.6 0 0 2.93 0.11zm-9.66-15.98c-6.54-0.64-9.77 2.86-9.6 8.99 0.11 3.75 0.53 11.56 5.84 10.65a1.31 1.31 0 0 0 0.93-1.92c-2.61-4.82-2.76-10.2 0.64-14.53 0.82-1.04 1.88-1.76 2.47-2.59a0.38 0.38 0 0 0-0.28-0.6zm-140.38 11.98a1.7 1.7 0 0 0-0.67 2.45c6.33 9.67 20.9 4.71 20.36-6.69-0.15-3.15-1.98-6.27-5.41-5.25-3.04 0.9-4.48 3.47-6.92 6.35-2.37 2.79-4.79 1.88-7.36 3.14zm188.44-7.5c-3.42 0.53-11.77 2.27-10.55 6.92a1.84 1.84 0 0 0 2.62 1.17c2.93-1.49 5.48-2.78 8.68-3.27 3.2-0.5 6.03-0.05 9.27 0.49a1.84 1.84 0 0 0 2.14-1.91c-0.25-4.8-8.74-3.93-12.16-3.4zm-175.59 26.78c2.18 2.88 6.3 3.15 9.51 2.92q8.94-0.63 10.42-8.85c0.46-2.55 1.95-8.06-1.84-9q-4.41-1.09-6.76 2.11c-1.1 1.5-1.26 2.94-1.82 4.66a4.13 4.11-0.1 0 1-2.64 2.63c-2.97 0.98-6.96 1.74-7.16 4.56a1.42 1.42 0 0 0 0.29 0.97zm162.01-11.75c-1.32 2.47 2.48 3.84 3.99 3.69q3.25-0.33 6.66 0.25c2.71 0.46 5.98 2.81 8.55 4.39a3.08 3.03-51.8 0 0 3.78-0.48c1.79-1.81-1.24-6.33-2.87-7.84-4.75-4.38-12.36-3.89-18.12-1.63q-1.42 0.56-1.99 1.62zm0.86 15.9c3.12 1.95 7.48-0.39 4.88-4.03q-3.35-4.7-9.84-4.75-2.28-0.01-2.91 0.33a2.02 2.02 0 0 0-0.09 3.53q2.06 1.22 7.96 4.92zm62.99-7.79q0 0.05 0.44 5.12 0.2 2.41-1.51 8.15a1.83 1.83 0 0 0 1.32 2.31l0.07 0.02a2.14 2.13 15.8 0 0 2.54-1.41c1.45-4.48 2.09-11.76-2.17-14.54a0.45 0.44-71.8 0 0-0.69 0.35zm-4.64 10.95a1.34 1.34 0 0 0-0.1-1.04q-2.28-4.34 1.09-7.68a0.82 0.82 0 0 0-0.41-1.38l-0.27-0.06a2.51 2.5-60.9 0 0-2.29 0.66q-4.28 4.21-0.8 12.52a1.02 1.01 41.9 0 0 1.91-0.1zm-209.1 3.46a1.85 1.59 30.9 0 0 0.73 2.19c6.81 4.53 14.73 3.74 18.7-3.88q1.02-1.97 2.19-8a1.11 1.1-62.6 0 0-0.32-1.02q-1.96-1.88-5.24-1.89c-4.1-0.02-3.65 4.96-5.62 7.14-3.07 3.39-9.12 2.92-10.44 5.46zm181.78 22.79a1.59 1.58 53.3 0 0 2.65 0.39c2.77-3.2-0.95-22.39-1.77-25.84q-0.75-3.16-3.33-6.08a7.4 7.39 67.5 0 0-6.03-2.51l-1.89 0.12a2.42 2.41-17.7 0 0-1.9 3.68q4.61 7.43 8.96 19.08c1.23 3.31 2.23 8.72 3.31 11.16zm-39.73-18.65a1.27 1.27 0 0 0 2.05-0.95q0.22-6.15-3.36-9.7c-1.72-1.71-4.21-2.83-5.7-0.35a3.08 2.72 42.9 0 0 0.33 3.28q1.37 1.75 3.57 3.52c1.52 1.22 2.01 3.34 3.11 4.2zm-70.35 18.93a0.28 0.28 0 0 0 0.12-0.52c-8.4-5.4 2.35-16.08 9.11-8.16q0.76 0.9 3.1 4.32c2.11 3.07 6.5 2.2 8.38-0.58 2.84-4.19 0.82-8.84-2.07-12.93-1.31-1.86-1.91-4.86-3.45-6.38-10.62-10.51-28.82-6.77-40.47-0.57-5.65 3.01-12.93 11.28-7.62 17.37 2.75 3.15 12.14 5.15 16.76 6.32q7.61 1.92 16.14 1.13zm-55.45-10.94c1.2 2.41 6.13 2.05 8.51 1.32 6.26-1.93 10-9.08 11.21-15.22a1.38 1.36-59.2 0 0-0.28-1.14c-2.42-2.91-5.26-4.99-8.24-1.56a2 1.97 71.2 0 0-0.46 0.95c-1.47 7.75-3.09 10.49-10.2 14.03a1.21 1.21 0 0 0-0.54 1.62zm156.05 19.39a2.93 2.93 0 0 0 2.05-2.41q2.53-19.02-7.83-33.07a3.88 3.88 0 0 0-5.59-0.69l-0.04 0.04a4.28 4.28 0 0 0-0.58 6.03q11.02 13.33 10.14 28.75a1.36 1.36 0 0 0 1.75 1.38zm49.99-35.25q-0.03 0.01-0.25 0.11a0.75 0.73-3.6 0 0-0.35 0.39q-1.99 4.96-6.96 6.52a1.06 1.05 86.7 0 0-0.71 0.8c-0.2 1.04-0.5 2.95 1.07 3.41q1.19 0.35 2.38-0.88c1.47-1.5 6.49-6.21 6.38-8.91a1.5 1.49 87.5 0 0-1.56-1.44zm-92.58 15.29c3.59-3.02-1.26-11.7-5.37-12.39-2.5-0.42-3.22 2.05-2.4 3.99q0.23 0.54 3.16 3.59a4.86 4.65-79.5 0 1 0.93 1.42q0.47 1.11 0.91 2.55a1.74 1.73 61.7 0 0 2.77 0.84zm56.79 18.1 0.27 0.19a4.55 4.54-51.3 0 0 6.15-0.69q13.51-15.69 16.05-18.74c2.12-2.55 3.78-5.79 2.21-8.92a1.55 1.54-36.4 0 0-2.5-0.37l-22.67 23.57a3.28 3.27 39.4 0 0 0.49 4.96zm-35.65-27.92a3.73 3.73 0 0 0-1.5 4.78q3.71 8.05 4.91 11.17 3.6 9.37 3.68 19.95a1.28 1.28 0 0 0 1.65 1.22l0.08-0.03a2.48 2.47-5.4 0 0 1.73-2.09q2.1-18.47-6.08-33.87a3.11 3.11 0 0 0-4.32-1.22zm-53.1 15.24a1.64 1.64 0 0 0 2.98 0.45q2.9-4.62 2.1-10.5a5.89 5.88 4.5 0 0-4.14-4.84l-0.78-0.23a2.62 2.62 0 0 0-3.29 3.18zm14.31 0.6a2.08 2.03-53 0 0 2.57-0.39c2.53-2.75 1.29-9.71-0.66-12.71a2.25 2.23 88.6 0 0-0.75-0.72c-1.67-0.96-5.6-1.33-5.27 2 0.16 1.58 1.86 10.46 4.11 11.82zm107.48-7.29-7.77-1.17a0.25 0.25 0 0 0-0.28 0.21l-0.06 0.4a3.33 2.4 8.6 0 0 2.93 2.88l1.68 0.25a3.33 2.4 8.6 0 0 3.65-1.88l0.06-0.4a0.25 0.25 0 0 0-0.21-0.29zm-72.63 32.04a1.03 1.03 0 0 0 1.7 0.54c5.11-4.61-0.95-24.98-3.1-31.52a3.45 3.44-18.6 0 0-4.39-2.18l-0.17 0.06a3.62 3.61 69.5 0 0-2.17 4.76q0.94 2.33 4.07 8.53 2.18 4.32 3.62 13.2c0.35 2.12 0.03 4.74 0.44 6.61zm-8.57-0.83a2.23 2.22 58.7 0 0 0.65-2.68q-4.84-10.66-5.23-21.59a1.41 1.39-71.2 0 0-0.5-1.03q-2.21-1.88-5.09-1.55a1.33 1.3-79.9 0 0-1.03 0.73q-1.04 2.09 0.04 5.91 3.32 11.72 8.81 19.89a1.59 1.59 0 0 0 2.3 0.36zm-18.37-22.74c-5.55-1.12-6.05 2.71-4.53 6.77q3.06 8.19 9.03 15.41a3.62 3.61 64 0 0 3.57 1.23l0.25-0.06a1.49 1.48 64.7 0 0 0.84-2.36q-7.39-9.5-8.52-20.28a0.83 0.81-87.6 0 0-0.64-0.71zm-3.24 23.41a1.49 1.48 46 0 0 0.03-2.21q-6.7-6.23-7.74-14.18-0.45-3.4-1.5-4.38c-3.75-3.48-8.71-1.2-6.59 4.27q4.05 10.42 13.21 16.69a2.08 2.07 41.6 0 0 2.54-0.15zm-15.97-8.06q-0.53-2-2.75-3.57c-5.38-3.8-11.83-3.48-18.85-3.45q-4.43 0.02-10.62-1.56-3.01-0.77-5.12 0.9c-4.22 3.32 0.73 7.12 4.24 6.68q16.5-2.07 32.02 2.08a0.88 0.88 0 0 0 1.08-1.08zm-1.22 3.6q-8.04-5.04-15.23 0.77c-6.48 5.24-9.54 7.87-17.31 11.14-2.26 0.95-4.6 2.23-5.29 4.23-2.17 6.31 5.15 6.62 8.18 3.45q3.45-3.6 6.92-5.32c7.26-3.58 19.7-3.42 23.06-13.35a0.79 0.79 0 0 0-0.33-0.92zm25.14 43.82a2.31 2.3 13.3 0 0 2.5-1.54c2.86-8.53-2.84-15.1-10.69-16.98q-4.5-1.08-5.45-1.15-30.07-2-38.76-1.97c-1.88 0.01-3.78 2.57-2.75 4.61 1.49 2.96 4.14 3.59 7.26 3.57q1.76-0.02 31.3-0.56c3.49-0.07 6.62-0.17 9.74 1.08q7.61 3.07 5.38 10.77a1.71 1.71 0 0 0 1.4 2.16zm-13.91-11.64q0.02 0.14 0.18 0.84 0.1 0.45 0.33 0.75c2.37 3.15 2.04 5.96-0.38 8.7q-1.1 1.24-1.67 2.28a1.57 1.57 0 0 0 1.5 2.32c7.14-0.55 10.77-15.39 0.86-15.77a0.8 0.8 0 0 0-0.82 0.88z"/><path d="m193.58 58.69 0.08 0.04a3.26 3.25-63.5 0 1 1.43 4.27q-5.33 11.23-13.74 19.84-2.45 2.51-5.12 2.83c-6.06 0.73-6.41-6.16-1.74-8.44 5.88-2.88 8.82-4.05 11.73-8.82q1.18-1.94 3.43-8.19a2.79 2.79 0 0 1 3.93-1.53z"/><ellipse transform="rotate(183.9 135.37 48.493)" rx="3.38" ry="2.88"/><ellipse transform="rotate(203.7 137.75 30.497)" rx="5.45" ry="5.11"/><ellipse transform="rotate(231 162.84 -4.0097)" rx="4.81" ry="3.83"/><ellipse transform="rotate(264 182.26 -50.008)" rx="2.97" ry="2.38"/><circle cx="216.58" cy="144.3" r="4.82"/><path d="m336.63 166.43a1.74 1.74 0 0 1-1.8 1.69l-1.04-0.04a4.59 4.45 1.7 0 1-4.46-4.58v-0.16a4.59 4.45 1.7 0 1 4.72-4.31l1.05 0.03a1.74 1.74 0 0 1 1.69 1.79z"/><path d="m292.61 172.97a0.71 0.7 84.5 0 1 0.79-0.96c5.13 1.02 7.49 6.79 7.59 11.4a3.57 3.57 0 0 1-2.56 3.49l-0.21 0.07a2 2 0 0 1-2.57-1.91q-0.03-6.6-1.24-8.66-1.26-2.13-1.8-3.43z"/><path d="m248.61 173.98c2.96 2.64 0.49 7.15-1.21 9.97a1.68 1.68 0 0 1-2.62 0.33c-3.87-3.86-1.24-8.2 2.75-10.42a0.93 0.92 51.1 0 1 1.08 0.12z"/><path d="m279.06 199.48a1.66 1.66 0 0 1 0.7 2.24l-0.11 0.22a6.76 6.48 27.7 0 1-9 2.59l-0.66-0.34a6.76 6.48 27.7 0 1-2.97-8.88l0.11-0.21a1.66 1.66 0 0 1 2.24-0.7z"/><path d="m435.91 216.7c1.73 2.64 5.27 9.5 1.34 11.75a1.95 1.94 62.5 0 1-2.73-0.87c-0.97-2.08-1.71-5.16-3.4-7.73-1.7-2.58-4.23-4.47-5.76-6.19a1.95 1.94 50.8 0 1 0.29-2.85c3.62-2.72 8.52 3.24 10.26 5.89z"/><path d="m153 223.28a0.74 0.74 0 0 1-0.69 0.79l-0.2 0.01a3.22 3.02-3.7 0 1-3.41-2.81l-0.01-0.14a3.22 3.02-3.7 0 1 3.02-3.22l0.2-0.01a0.74 0.74 0 0 1 0.78 0.69z"/><path d="m154.39 230.17a1.42 1.42 0 0 1 1.45 1.39l0.02 1a3.98 3.73 88.8 0 1-3.64 4.06l-0.86 0.02a3.98 3.73 88.8 0 1-3.82-3.9l-0.02-1a1.42 1.42 0 0 1 1.39-1.45z"/><path d="m185.8 263.34a1.8 1.8 0 0 1-1.33 1.84c-5.21 1.42-11.94-4.51-14.82-8.57-2.77-3.9-7.03-9.82-6.36-13.72a2.39 2.14-0.5 0 1 1.97-1.79q2.03-0.32 2.91 1.35 1.95 3.71 4.19 6.04 4.66 4.84 12.02 11.87 1.32 1.27 1.42 2.98z"/><path d="m341.99 303.78a0.88 0.88 0 0 1-0.6 1.09l-1.02 0.3a2.3 2.23-16.1 0 1-2.83-1.51l-0.08-0.29a2.3 2.23-16.1 0 1 1.59-2.78l1.02-0.29a0.88 0.88 0 0 1 1.09 0.6z"/><ellipse transform="rotate(206.4 211.35 111.46)" rx="5.36" ry="4.58"/><circle cx="347.31" cy="318.87" r="3.12"/><path d="m316.8 340.76a0.53 0.53 0 0 1 0.84 0.56q-1.15 4.52-5.75 5.64c-4.59 1.12-20.38 2.71-20.94-4.93a1.74 1.74 0 0 1 2.79-1.52q11.63 8.87 23.06 0.25z"/></g></g><g transform="matrix(.01344 0 0 .01344 -129.81 4.9564)"><g fill="#fff"><path d="m1584.8 401.63a0.27 0.27 0 0 0-0.24-0.42q-18.73 0.88-36.94-2.08c-20.21-3.29-38.96-8.08-58.25-12.47-28.92-6.58-61.67-10.29-89.36 0.36q-20.22 7.77-23.44 8.97-11.54 4.32-22.57 5.14c-27.73 2.08-46.28-17.95-37.8-45.72 12.4-40.63 56.17-43.25 89.75-54.07q18.36-5.91 36.76-14.68c40.1-19.09 80.63-43.2 126.32-41.46 13.77 0.52 26.94 3.63 39.19 10.14 29.44 15.67 48.96 45.6 52 78.71q0.48 5.2 0.02 12.95c-0.88 14.82-8.24 26.57-19.84 35.12q-2.43 1.79-5.69 4.05a3.77 3.76 87 0 0-1.17 1.3q-1.6 2.92-6.59 11.2c-4.25 7.05-2.92 16.76-3.29 24.7-0.67 14.11-12.03 21.59-24.65 25.84-22.91 7.7-48.19 6.14-72.22 1.28-28.13-5.69-58.71-16.08-88.25-17.26-11.01-0.44-25.82 1.03-39.23 0.22-12.4-0.75-24.52-9.13-32.92-18.49a0.79 0.78-40.2 0 1 0.1-1.14c42.21-32.96 97.35-20.61 142.51-2.02 10.11 4.16 20.61 8.99 31.57 11.12 19.56 3.81 33.52-6.11 44.23-21.29zm-77.33-86.08c1.94 11.38 8.58 18.22 18.52 23 11.97 5.76 23.28 11.68 35.73 3.51 16.01-10.49 24.25-27.11 10.87-44.16-7.01-8.93-17.28-13.77-28.67-18.77-16.77-7.37-31.94-0.48-36 17.5q-2.09 9.29-0.45 18.92zm109.61 53.81q3.51-1.2 6.94-1.01a2.34 2.3 25.5 0 0 1.61-0.55c4.17-3.55 8.1-7.04 10.77-11.43 8.41-13.84 6.53-31.97-5.85-42.85q-2.13-1.87-4.67-1.33a1.57 1.56 12.7 0 0-0.91 0.57c-2.68 3.46 0.5 7.46 1.75 10.31a7.36 7.35 29.7 0 1 0.59 2.15c1.12 9.46-4.75 17.24-10.02 25.79-3.17 5.14-4.93 12.3-1.49 17.88a1.1 1.08 64.7 0 0 1.28 0.47zm-266.41-9.55q2.27 4.89 6.02 7.95c5.58 4.56 10.59-2.19 12.2-7.13 1.91-5.86 3.44-9.78 7.94-14.11 4.47-4.3 12.29-10.44 10.86-17.33-0.83-4.03-6.21-4.37-9.07-3.23q-21.96 8.82-28.1 32.14a2.58 2.51-50.8 0 0 0.15 1.71z"/><path d="m214.6 325.19c171.4 72.2 348.15 128.99 529.89 166.85a0.62 0.61 7.7 0 1 0.49 0.63c-1.22 20.08-9.51 49.98-37.41 41-141.77-45.66-280.3-91.82-413.43-146.8-31.42-12.97-64.1-29.71-80.02-61.17a0.37 0.37 0 0 1 0.48-0.51z"/><path d="m1657.5 442.12a0.38 0.37-25.9 0 1 0.39 0.13c7.37 9.28 9.26 21.49-4.08 26.55q-18.04 6.84-27.77 10.17c-6.08 2.08-14.75 0.36-14.18-7.92 0.52-7.37 8.48-12.24 14.58-15.91q14.31-8.59 31.06-13.02z"/><path d="m1668 494.15c3.34 8.34 2.53 20.39-9.19 20.45q-17.84 0.09-32.85-0.72c-4.95-0.26-10.06-2.79-11.15-7.93-0.93-4.41 3.8-8.96 7.56-10.2q21.6-7.13 44.37-2.64a1.72 1.72 0 0 1 1.26 1.04z"/><path d="m1565.7 620.22q-1.35-1.41-68.01-69.41c-11.51-11.74-26.25-28.1-17.62-45.95 7.6-15.72 24.02-14.24 33.11-1.19 2.53 3.64 4.83 8.13 6.61 12.49q14.4 35.31 41.93 63.14 6.03 6.1 9.85 11.09c8.03 10.46 6.68 23.24-5.23 29.92a0.54 0.52-36.4 0 1-0.64-0.09z"/><path d="m821.36 496.38a0.28 0.28 0 0 1 0.21 0.46q-18.83 23.99-15.38 54.99c0.24 2.13-0.5 7.68-1.73 9.88-4 7.14-12.07 6.21-17.64 1.51q-2.17-1.84-4.43-5.87-10.32-18.36-8.7-38.16c0.58-7.09 3.5-13.67 9.75-17.4 10.94-6.53 25.57-5.85 37.92-5.41z"/><path d="m1886.6 705.14a0.26 0.25-23.4 0 0-0.18 0.45c5.04 4.08 10.2 11.95 4.56 18.02-3.16 3.4-8.04 1.89-10.34-1.23-55.67-75.6-140.55-116.39-225.94-148.54q-10.87-4.09-93.07-34.11-3.94-1.44-12.2-5.85c-12.35-6.59-21.35-19.01-15.35-33.47a1.02 1.01 15.3 0 1 1.08-0.61q33.26 4.91 65.27 16.33c53.71 19.18 103.3 48.13 153.15 75.33q29.6 16.15 63.93 32.33c18.93 8.92 35.7 17.59 52.41 28.35 28.41 18.32 53.85 44.81 63.11 78.11 2.92 10.53 6.02 26.14-3 33.68-3.67 3.06-9.4 3.88-13.28 0.81-6.17-4.89-4.55-17.13-4.01-23.91 0.72-9.07-1.75-17.38-7.61-24.39-4.29-5.14-11.79-10.91-18.53-11.3z"/><path d="m901.43 516.46q-3.39 4.41-4.52 5.92-13.07 17.44-16.43 40.13-0.96 6.46-1.03 18.22c-0.07 10.51-9.34 15.81-18.88 13.2-10.28-2.81-14.99-14.43-15.05-24.46q-0.04-6.42 1.27-13.21 2.5-12.86 5.04-22.42c2.97-11.15 9.45-26.31 20.39-30.87 6.34-2.65 13.46 1.2 18.74 4.85q6.89 4.76 10.38 7.77a0.64 0.64 0 0 1 0.09 0.87z"/><path d="m977.72 541.11c-12.46 10.09-20.41 22.95-23.06 38.87-1.09 6.55-0.37 13.66-0.74 20.25-0.44 7.75-5.38 15.98-14.14 14.17-7.22-1.49-11.39-8.05-12.95-14.96q-3.74-16.54-4.49-30.71c-0.69-13.05 3.6-28.83 14.59-36.99 13.87-10.29 29.88-2.92 40.85 8.38a0.67 0.67 0 0 1-0.06 0.99z"/><path d="m1088.5 616.05a0.61 0.6 42.8 0 0-0.04-0.89c-15.21-12.81-34.36-6.55-53.41-2.85-14.2 2.77-31.88 0.4-38.53-14.53q-4.11-9.24-1.41-18.28 1.6-5.38 9.81-13.49c19.06-18.82 42.36-33.57 68.57-37.9 29.32-4.85 61.08 4.47 79.23 28.97 8.91 12.03 13.68 28.42 15.9 43.32q2.39 16.06 3.63 33.62c1.1 15.68-2.86 28.5-14.95 38.82q-12.65 10.81-29.54 20.16c-11.03 6.11-23.38 10.33-36.11 8.95-17.38-1.88-29.42-12.57-31.07-30.7-2.02-22.26 13.29-40.35 27.92-55.2z"/><path d="m1607.2 593.09c-6.99-2.9-10.22-9.48-2.73-14.68q9.13-6.34 19.91-3.11c3.59 1.07 6.62 3.61 10.14 5.65q2.63 1.53 14.05 4.66c6.07 1.66 14.44 5.97 15.53 12.92 1.4 8.92-4.37 14.18-13.1 10.94q-40.52-15.02-43.8-16.38z"/><path d="m1218.7 608.09q-0.78 17.9-1.61 38.07c-0.41 9.9-0.38 20.25-12.7 21.92-11.33 1.53-14.72-7.67-15.41-17.09q-0.76-10.37-1.53-27.49c-0.31-7.16 0.62-16.22 7.89-19.23 6.54-2.71 16.3 0.29 23.12 3.44a0.4 0.4 0 0 1 0.24 0.38z"/><path d="m1271.3 670.34c-6.19 2.25-19.57 4.96-21.16-5.03q-1.54-9.6-4.39-29.81c-0.88-6.24-1.18-12.99 2.09-17.95 3.13-4.75 8.63-7.41 14.4-6.71 6.68 0.82 11.82 4.64 12.3 11.65q2.19 31.93 2.36 36.26c0.2 5.18 0.2 9.49-5.6 11.59z"/><path d="m1600.4 617.06c0.6-4.94 6.84-6.56 10.75-4.83 3.45 1.52 6.2 5.65 8.98 8.36 10.32 10.03 28.75 18.06 25.29 35.68-0.87 4.45-4.66 8.21-9.15 9.22q-7.13 1.6-11.49-5.31-17.63-27.95-23.05-36.93-1.74-2.88-1.33-6.19z"/><path d="m1340.4 634.69q1.06 9.03 2.13 11.75c4.14 10.49 8.19 19.69 4.88 29.71-3.04 9.23-14.18 10.51-21.28 5.64-8.32-5.71-11.86-16.71-14.83-26.61-2.85-9.49-3.38-22.86 6.06-29.24 8.79-5.94 17.2 0.4 22.63 7.71a2.26 2.22 24.1 0 1 0.41 1.04z"/><path d="m1508.8 628.57c8.27-3.47 14.25 8.03 16.6 13.76 6.02 14.64 11.13 28.93 10.77 44.64-0.18 7.84-3.94 24.24-13.57 26.85-10.02 2.72-13.59-8.29-13.1-15.81q1.05-16.28-1.76-29.29-1.65-7.62-5.31-18.17c-2.65-7.62-2.25-18.37 6.37-21.98z"/><path d="m1465.9 700.19c-1.93-0.96-3.04-3.37-4.07-5.54q-9.84-20.71-18.88-40.32c-2.46-5.31-3.49-11.82-0.66-17.15 4.92-9.23 14.15-4.19 19.28 1.17q20.31 21.27 18.38 50.83c-0.47 7.06-6.61 14.71-14.05 11.01z"/><path d="m1581.4 642.24c2.22 6.13 3.59 9.71 6.52 15.2 5.22 9.8 9.14 16.55 11.39 25.65 2.2 8.94 1.77 21.18-6.72 26.54-6.36 4.01-11.88-1-13.26-7.06-3.47-15.28-7.95-29.47-15.93-42.52-4.48-7.33-11.79-17.01-5.87-25.05q3.03-4.12 8.55-2.29 7.24 2.41 14.28 8.07a3.42 3.4 9.8 0 1 1.04 1.46z"/><path d="m1402.4 644.42q2.74 6.45 3.5 7.5c7.04 9.75 13.63 16.75 13.04 27.32-0.32 5.71-4.98 10.05-10.7 10.99-8.3 1.37-15.48-2.81-20.49-9.27q-7.61-9.81-12.35-22.11c-3.62-9.37-0.09-25.87 13.35-22.36q7.03 1.84 12.65 6.57a3.68 3.64-81.6 0 1 1 1.36z"/><path d="m1299.6 891.32c-5.95 7.06-14.08 2.1-17.52-4.18-24.76-45.18-32.58-97.88-37.79-148.56-1.62-15.72-4.53-34.01 7.67-46.54q7.46-7.67 18.19-5.68c6.73 1.25 13.74 6.49 12.23 14.12q-17.58 88.79 18.05 170.64c2.82 6.46 4.1 14.36-0.83 20.2z"/><path d="m1236 882.54c-0.56 1.56-2.69 3.59-4.46 4.15-8.6 2.77-14.64-3.18-18.59-10.38-19.1-34.8-23.42-74.98-23.91-114.01-0.22-17.87-0.62-27.29 0.32-41.17q0.54-8.01 4.09-15.09c3.53-7.03 9.66-10 17.24-9.71q5.77 0.21 8.93 3.3c4.74 4.65 3.53 11.26 2.33 17.47q-0.62 3.2-1.16 7.08-9.12 64.74 8.54 127.94 1.48 5.27 6.02 19.12c1.29 3.91 1.98 7.66 0.65 11.3z"/><path d="m1355 710.92c-17.87 47.46-15.47 100.71 4.68 147.21q1.26 2.9 8.97 18.03c1.78 3.49 3.28 10.42 0.27 13.61-5.98 6.34-14.66-1.27-19.53-5.78-27.15-25.23-43.74-59.57-48.27-96.29-2.86-23.17-0.49-47.6 7.96-69.39q1.51-3.9 4.83-8.67c11.15-16.03 28.24-12.86 40.65-0.69a1.83 1.83 0 0 1 0.44 1.97z"/><path d="m1853.1 719.13c14.55 3.86 28.63 12.93 39.88 21.17 2.02 1.48 2.51 3.59 3.45 5.78 4.02 9.28 8.32 24.23 3.15 33.8q-5.76 10.65-18.34 11.02-10.14 0.3-20.24-3.38-112.93-41.25-233.83-60.77a0.43 0.43 0 0 1-0.31-0.64c7.32-12.81 21.13-18.75 35.65-18.97 11.84-0.18 22.02 2.05 34.63 5.22q10.32 2.6 125.22 30.82 4.63 1.14 11.58 1.21 11.73 0.13 18.02-8.82 5.31-7.55 0.82-16.04a0.28 0.28 0 0 1 0.32-0.4z"/><path d="m1413.4 721.3c-17.87 50.38-10.68 106.59 18.78 151.06 2.05 3.09 2.2 8-1.97 9.5-6.69 2.4-12.03-4.91-16.35-10.18-29.03-35.46-45.25-81.81-41.99-127.92 0.8-11.28 5.19-24.53 15.53-30.13 9.48-5.13 19.91-1.97 25.86 6.61a1.15 1.14-52.8 0 1 0.14 1.06z"/><path d="m911.86 916.42q-1.19-0.69-2.66-2.07c-20.8-19.58-20.14-52.65-7.36-76.36 8.76-16.24 22.74-30.86 36.68-42.22q48.64-39.63 95.45-73.71a0.69 0.67-54 0 1 0.58-0.1c10.96 3.19 23.23 7.89 30.49 16.19 7.26 8.29 10.24 20.02 3.65 29.54q-2.74 3.96-5.98 7.02-137.02 129.47-149.96 141.61a0.75 0.75 0 0 1-0.89 0.1z"/><path d="m1162.4 727.14q-12.34 67.19 14.93 129.76c3.15 7.21 9.69 18.62 1.55 23.51-3.73 2.23-9.93-0.07-12.99-2.6-13.33-11.05-19.56-26.26-24.12-42.88q-9.73-35.51-12.14-72.92-0.2-3 0.67-10.73c1.89-16.9 13.25-29.54 31.59-24.94a0.69 0.69 0 0 1 0.51 0.8z"/><path d="m1639.5 803.69c3.73 5.01 3.73 12.95-2.86 15.69q-3.25 1.35-8.12 1.2-78.48-2.52-153.87-25.42-4.93-1.5-11.35-4.93-17.74-9.5-16.82-29.72c0.33-7.25 3.46-15.96 9.43-20.77q9.5-7.66 21.54-5.88 3.37 0.5 12.75 4.22 5.49 2.17 6.05 2.45 1.49 0.74 132.59 55.55 7.27 3.04 10.66 7.61z"/><path d="m861.99 866.83q4.97 9.72 7.42 19.92c3.93 16.33-4.64 36.53-24.69 33.27q-5.84-0.95-10.93-3.06-146.78-60.63-305.62-61.24c-12.82-0.05-24.74 0.55-37.66 0.7-10.46 0.12-27.41-2.08-33.43-11.97-6.87-11.28-1.73-22.71 7.8-30.3 10.76-8.59 27.28-7.73 40.12-6.58q59.3 5.28 120.74 13.24 118.86 15.4 234.72 44.8a2.37 2.35 83.4 0 1 1.53 1.22z"/><path d="m1090.3 809.71a0.42 0.42 0 0 1 0.54 0.27c8.21 25.95 11.9 53.31 13.44 80.77 1.44 25.82 2.02 48.2 4.5 72 1.9 18.2 5.51 35.25 11.52 51.79 4.02 11.05 9.12 26.58 0.3 36.71-6.65 7.64-18.2 6.69-26.61 2.23-11.33-6.02-16.08-18.51-17.8-30.96q-15.86-114.61-22.7-165.76-0.75-5.59-0.82-7.79c-0.39-12.92 5.91-21.98 16.58-28.97q9.27-6.07 21.05-10.29z"/><path d="m1620.1 838.43a0.59 0.59 0 0 1 0.04 0.96q-31.56 24.23-112.48 87.23c-6.21 4.84-11.1 8.93-16.8 10.63-6.46 1.92-12.36-0.45-15.72-6.37-8.58-15.06 5.75-29.49 15.56-39.72q27.07-28.21 61.24-49.76c12.03-7.59 25.44-14.27 39.29-13.64 10.23 0.48 20.52 5.15 28.87 10.67z"/><path d="m245.91 1033.1c-13.88 1.07-31.68 0.21-34.11-17.53q-1.52-11.02 8.07-19.5 124.38-110 148.91-131.57c9.3-8.18 22.96-17.48 35.95-16.79 12.25 0.66 26.84 10.14 25.19 24.3a2.89 2.88-14.6 0 1-1.17 1.99c-65.27 47.02-126.46 99.96-181.54 158.47a2 1.98-70.5 0 1-1.3 0.63z"/><path d="m1750.4 927.41a0.74 0.74 0 0 1 0.53-0.72q25.87-7.87 54.05-13.78c8-1.69 16.59-2.81 22.15 3.48 3.06 3.48 2.97 9.95-1.09 12.57q-2.24 1.43-6.15 0.89c-4.38-0.6-6.91-1.42-11.16-1.47q-12.62-0.14-22.78 7.57-9.53 7.23-10.64 8.01c-6.05 4.21-16.83 7.66-21.14-0.87q-3.58-7.07-3.77-15.68z"/><path d="m1484.4 965.47q-0.36-1.41-0.11-5.7c0.5-8.69 6.68-11.34 14.07-13.68q24.07-7.62 54.91-15.84c63.89-17.04 138.2-22.52 194.88 18.38 6.23 4.51 11.42 10.56 11.57 18.78 0.16 8.8-6.69 13.88-15.21 12.8q-6.06-0.76-11.13-3.05c-45.83-20.71-95.09-37.39-144.38-19.82-20.1 7.17-37.74 19.39-58.93 22.8-16.17 2.61-34.49-0.55-45.17-13.68a2.8 2.7-72.8 0 1-0.5-0.99z"/><path d="m722.14 919.88q-0.89 3.66-4.45 12.07c-9.25 21.89-24.97 36.69-46.38 46.33-18.19 8.19-36.46 12.45-56.57 17.71q-76.48 20.02-140.24 63.29c-22.74 15.43-46.54 33.48-75.87 29.56-12.88-1.73-24.74-7.87-31.48-19.14a0.69 0.67-33.6 0 1 0.19-0.9q158.62-112.67 350.16-148.85 0.26-0.05 4.23-0.53a0.37 0.37 0 0 1 0.41 0.46z"/><path d="m743.92 934.76c0.74-14.59 22.23-11.83 31.36-9.03q129.12 39.58 202.47 62.01c26.67 8.16 51.88 17.94 74.53 32.97 7.98 5.29 9.07 14.95 5.81 23.36q-6.66 17.16-25.34 18.46c-12.76 0.88-25.75-3.8-37.61-8.92q-64.32-27.75-233.76-100.75c-7.24-3.11-17.92-8.89-17.46-18.1z"/><path d="m1880.2 988.12c-2.09-0.68-4.82-2.39-7.55-3.5-17.57-7.17-35.68-8-54-3.12-8.68 2.31-12.08 3.28-18.35 3.98q-11.16 1.27-19.53-6.7c-3.81-3.63-3.6-8.06 1.52-10.33q37.95-16.77 78.19-6.95c11.68 2.85 24.13 12.52 20.52 26.18a0.63 0.63 0 0 1-0.8 0.44z"/><path d="m144.95 1022.4a0.39 0.38 52.1 0 1-0.64-0.08q-3.38-6.94-2.35-14.84c2.72-20.87 24.41-31.09 43.06-32.68q4.88-0.41 9.68 0.97c13.53 3.9 9.72 16.19 1.57 22.81a2.21 2.21 0 0 1-1.4 0.5q-30.44 0.22-49.92 23.32z"/><path d="m1769.3 994.49a1.72 1.69 73.6 0 1 1.35 0.75q7.97 11.76 21.75 16.38 3.01 1 11.35 2.12c4.91 0.65 11.47 4.9 9.42 10.83-1.41 4.05-6.68 5.44-10.67 5.62q-23.9 1.08-43.95-11.98c-5.08-3.31-9.32-8.08-9.16-14.44 0.23-9.68 12.73-9.56 19.91-9.28z"/><path d="m391.21 1035.9a0.47 0.47 0 0 1-0.55 0.38q-4.95-0.99-10.4-0.86-21.74 0.52-38.97 13.51c-2.88 2.18-5.98 5.74-8.51 7.81-5.74 4.7-10.53 0.25-10.85-5.74-0.65-12.04 7.6-23.01 17.81-28.34q14.84-7.76 31.47-9.27c13.93-1.26 22.28 9.22 20 22.51z"/><path d="m129.53 1078.8a0.2 0.2 0 0 1 0.05-0.35c14.79-5.61 31.34-14.14 37.05-29.83q0.66-1.8 2.34-10.61c0.95-4.94 4.8-9.66 9.64-11.45 12.98-4.77 19.83 6.21 24.3 16.84a2.11 2.05-53 0 1 0.14 1.13c-4.95 32.25-37.56 49.87-67.58 37.55q-3.47-1.43-5.94-3.28z"/><path d="m259.02 1047.3a0.73 0.73 0 0 1 0.56 0.43q3.42 7.83 2.96 16.72c-1.58 30.1-30.47 47.25-55.66 55.69-12.76 4.27-27.66 6.29-39.84-0.93-3.14-1.86-5.16-5.13-1.8-7.77q2.95-2.31 6.97-3.61c16.74-5.4 36.96-9.84 46.18-26.49q4.19-7.57 3.22-14.59c-1.17-8.52-3.62-19.18 7.4-22.79q5.07-1.66 9.45-0.65 11.36 2.6 20.56 3.99z"/><path d="m378.4 1103.5c-11.33 21.45-31.19 40.95-57.39 39.82-5.65-0.25-14.22-2.01-18.07-6.42-4.65-5.3 0.99-9.88 5.91-11.02 6.57-1.53 13.68-2.28 19.87-4.89 8.9-3.74 15.27-10.35 15.03-20.21-0.1-3.92-0.33-10.42 1.81-13.72 4.86-7.49 15.05-4.63 20.03 1.19q6.43 7.48 12.71 14.42a0.73 0.73 0 0 1 0.1 0.83z"/><path d="m354.39 1151.5a0.58 0.58 0 0 1 0.31-0.8c10.9-4.38 23.47-2.19 35.11-5.39 9.17-2.52 18.43-9.28 17.74-19.6-0.3-4.5-3.55-12.99-0.93-19.36q4.66-11.36 17.61-10.76 6.44 0.3 11.62 1.55a3.18 3.17 81.8 0 1 2 1.5q4.8 8.31 5.04 18.5c0.68 27.64-22.95 45.41-47.64 50.6-16.07 3.39-33.36-0.77-40.86-16.24z"/></g><g fill="#713e21"><path d="m1602.1 134.78a3.03 3.02 0.8 0 0 1.86 1.91c12.25 4.34 16.78 19.34 7.32 29.18-7.62 7.92-18.93 8.03-27.33 1.18-10.49-8.55-10.14-25.12-0.58-34.37q4.77-4.63 11.09-4.89a3.19 3.15 52.8 0 1 1.19 0.17q4.75 1.66 6.45 6.82z"/><path d="m1762.8 301.49a1.95 1.94 11 0 1-1.07-1.58c-3.67-46.22-29.39-87.72-68.58-112.27-7.15-4.48-13.71-15.45-2.7-20.72 4.94-2.36 10.41-1.45 15.58 0.61 34.76 13.8 62.85 43.51 77.09 77.86q5.33 12.86 7.26 26.08c1.83 12.61-2.9 30.02-17.77 31.6q-5.43 0.58-9.81-1.58z"/><path d="m1430.8 494.98a1.82 1.82 0 0 0-0.08-1.54c-11.02-20.89-36.73-30.3-58.31-36.07q-18.54-4.96-32.68-9.27c-13.79-4.21-28.5-10.76-39.11-20.2-17.94-15.97-25.12-39.64-22.95-63.28q3.29-35.87 26.78-63.01 6.09-7.04 15.72-14.99c21.89-18.08 48.87-30.17 76.4-39.58q26.21-8.96 60.09-19.18c36.49-11 72.13-20.13 108.49-23.44 36.34-3.3 73.86-0.27 106.61 16.09 33.84 16.9 53.63 45.24 56.1 83.97q1.27 19.96-1.44 42.46-4.14 34.43-5.4 48.57c-1.16 12.99-1.4 27.93 0.33 40.81 6.97 51.99 44.59 93.21 85.26 123.08 25.44 18.69 55.31 36.91 78.09 51.71q26.17 17.01 48.79 36.9c21.32 18.75 38.1 41.43 47.48 68.03 8 22.69 9.77 48.76-1.9 70.8-13.17 24.88-38.33 37.72-65.81 41.37-23.17 3.07-45.63 0.74-68.54-4.66q-16.17-3.82-38.47-9.73c-22.05-5.85-45.01-10.35-67.32-9.67-18.11 0.56-36.6 5.29-49.44 17.77-7.33 7.13-12.35 17.78-12.89 28.27-1.16 22.2 16.67 34.98 37.18 35.32 16.13 0.26 28.36-2.42 45.79-6.12q26.84-5.71 53.19-5.7c22.63 0.01 46.01 4.24 65.3 16.26 24.43 15.22 38.14 39.95 40.55 68.3 5.05 59.31-38.99 105.95-91.45 125.12-18.57 6.78-37.13 9.74-56.29 5.27q-13.04-3.04-29.01-11.76c-13.86-7.57-29.8-17.81-44.5-24.81q-58.23-27.75-123.09-26.75c-18.99 0.3-42.66 4.03-60.51 5.86q-17.91 1.84-34.71 0.66-22.05-1.55-39.71-12.85-6.12-3.92-14.14-11.53-6.52-6.18-17.27-16.74-19.36-19.03-45.94-25.66c-8.92-2.23-18.02-4.01-27.66-5q-24.93-2.55-51.3-3.32c-25.59-0.75-52.46 3.71-72.08 21.45q-17.74 16.04-18.39 40.57c-0.27 10.14 0.71 22.54 0.17 33.97-0.58 12.41-5.24 26.36-14.99 34.76q-5.05 4.34-11.92 3.42a4.98 4.86 41 0 0-1.89 0.11q-15.19 3.89-18.91 4.7c-27.34 5.99-56.27 6.48-84.74 3.69-38.1-3.74-76.62-13.32-113.46-24.68-17.11-5.28-60.75-20.07-102.08-31.92q-35.35-10.15-67.43-15.16c-39.89-6.23-79.9-5.54-119.58 3.87q-73.86 17.53-131.54 67.83-9.77 8.52-24 23.81-5.83 6.27-31.03 34.46-2.06 2.31-14.79 15.21c-25.5 25.84-57.85 47.31-95.85 42.86-15.73-1.84-31.11-7.19-46.03-13.92-20.99-9.47-36.59-16.71-56.66-22.81-21.82-6.64-47.98-12-70.82-19.17-17.16-5.39-34.25-12.82-48.56-23.97-27.1-21.14-39.03-52.49-37.17-86.34q2.1-38.38 22.36-70.68c22.65-36.11 57.73-63.03 93.59-86.34q24.21-15.75 61.7-38.8c55.44-34.08 112.86-65.52 175.84-82.15q56.58-14.95 115.51-9.21 34.26 3.34 72.95 11.51 38.74 8.18 49.87 10.59c76.05 16.46 163.5 27.9 233.43-14.88 25.11-15.37 46.96-39.58 45.45-70.87-1.77-36.62-34.33-48.2-64.65-52.35q-95.48-13.07-128.18-18.36c-82.24-13.32-161.33-29.54-239.31-54.02-84-26.37-164.31-62.43-236.93-111.54q-47.48-32.1-90-73-13.06-12.56-23.47-27.27-4.75-6.72-8.46-16.3c-10.08-26 1.53-50.8 26.41-62.7q19.65-9.4 41.94-7.06 20.75 2.17 43.05 10.38 149.3 54.96 305.17 95.83c151.55 39.75 308.64 71.71 464.17 98.81q145.56 25.36 296.38 49.04 9.09 1.43 20.18 0.66c23.66-1.62 43.39-13.38 52.52-35.79zm153.99-93.35c-10.71 15.18-24.67 25.1-44.23 21.29-10.96-2.13-21.46-6.96-31.57-11.12-45.16-18.59-100.3-30.94-142.51 2.02a0.79 0.78-40.2 0 0-0.1 1.14c8.4 9.36 20.52 17.74 32.92 18.49 13.41 0.81 28.22-0.66 39.23-0.22 29.54 1.18 60.12 11.57 88.25 17.26 24.03 4.86 49.31 6.42 72.22-1.28 12.62-4.25 23.98-11.73 24.65-25.84 0.37-7.94-0.96-17.65 3.29-24.7q4.99-8.28 6.59-11.2a3.77 3.76 87 0 1 1.17-1.3q3.26-2.26 5.69-4.05c11.6-8.55 18.96-20.3 19.84-35.12q0.46-7.75-0.02-12.95c-3.04-33.11-22.56-63.04-52-78.71-12.25-6.51-25.42-9.62-39.19-10.14-45.69-1.74-86.22 22.37-126.32 41.46q-18.4 8.77-36.76 14.68c-33.58 10.82-77.35 13.44-89.75 54.07-8.48 27.77 10.07 47.8 37.8 45.72q11.03-0.82 22.57-5.14 3.22-1.2 23.44-8.97c27.69-10.65 60.44-6.94 89.36-0.36 19.29 4.39 38.04 9.18 58.25 12.47q18.21 2.96 36.94 2.08a0.27 0.27 0 0 1 0.24 0.42zm-1370.2-76.44a0.37 0.37 0 0 0-0.48 0.51c15.92 31.46 48.6 48.2 80.02 61.17 133.13 54.98 271.66 101.14 413.43 146.8 27.9 8.98 36.19-20.92 37.41-41a0.62 0.61 7.7 0 0-0.49-0.63c-181.74-37.86-358.49-94.65-529.89-166.85zm1442.9 116.93q-16.75 4.43-31.06 13.02c-6.1 3.67-14.06 8.54-14.58 15.91-0.57 8.28 8.1 10 14.18 7.92q9.73-3.33 27.77-10.17c13.34-5.06 11.45-17.27 4.08-26.55a0.38 0.37-25.9 0 0-0.39-0.13zm10.49 52.03a1.72 1.72 0 0 0-1.26-1.04q-22.77-4.49-44.37 2.64c-3.76 1.24-8.49 5.79-7.56 10.2 1.09 5.14 6.2 7.67 11.15 7.93q15.01 0.81 32.85 0.72c11.72-0.06 12.53-12.11 9.19-20.45zm-102.27 126.07a0.54 0.52-36.4 0 0 0.64 0.09c11.91-6.68 13.26-19.46 5.23-29.92q-3.82-4.99-9.85-11.09-27.53-27.83-41.93-63.14c-1.78-4.36-4.08-8.85-6.61-12.49-9.09-13.05-25.51-14.53-33.11 1.19-8.63 17.85 6.11 34.21 17.62 45.95q66.66 68 68.01 69.41zm-744.33-123.84c-12.35-0.44-26.98-1.12-37.92 5.41-6.25 3.73-9.17 10.31-9.75 17.4q-1.62 19.8 8.7 38.16 2.26 4.03 4.43 5.87c5.57 4.7 13.64 5.63 17.64-1.51 1.23-2.2 1.97-7.75 1.73-9.88q-3.45-31 15.38-54.99a0.28 0.28 0 0 0-0.21-0.46zm1065.2 208.76c6.74 0.39 14.24 6.16 18.53 11.3 5.86 7.01 8.33 15.32 7.61 24.39-0.54 6.78-2.16 19.02 4.01 23.91 3.88 3.07 9.61 2.25 13.28-0.81 9.02-7.54 5.92-23.15 3-33.68-9.26-33.3-34.7-59.79-63.11-78.11-16.71-10.76-33.48-19.43-52.41-28.35q-34.33-16.18-63.93-32.33c-49.85-27.2-99.44-56.15-153.15-75.33q-32.01-11.42-65.27-16.33a1.02 1.01 15.3 0 0-1.08 0.61c-6 14.46 3 26.88 15.35 33.47q8.26 4.41 12.2 5.85 82.2 30.02 93.07 34.11c85.39 32.15 170.27 72.94 225.94 148.54 2.3 3.12 7.18 4.63 10.34 1.23 5.64-6.07 0.48-13.94-4.56-18.02a0.26 0.25-23.4 0 1 0.18-0.45zm-985.22-189.55q-3.49-3.01-10.38-7.77c-5.28-3.65-12.4-7.5-18.74-4.85-10.94 4.56-17.42 19.72-20.39 30.87q-2.54 9.56-5.04 22.42-1.31 6.79-1.27 13.21c0.06 10.03 4.77 21.65 15.05 24.46 9.54 2.61 18.81-2.69 18.88-13.2q0.07-11.76 1.03-18.22 3.36-22.69 16.43-40.13 1.13-1.51 4.52-5.92a0.64 0.64 0 0 0-0.09-0.87zm76.44 24.53c-10.97-11.3-26.98-18.67-40.85-8.38-10.99 8.16-15.28 23.94-14.59 36.99q0.75 14.17 4.49 30.71c1.56 6.91 5.73 13.47 12.95 14.96 8.76 1.81 13.7-6.42 14.14-14.17 0.37-6.59-0.35-13.7 0.74-20.25 2.65-15.92 10.6-28.78 23.06-38.87a0.67 0.67 0 0 0 0.06-0.99zm110.7 75.93c-14.63 14.85-29.94 32.94-27.92 55.2 1.65 18.13 13.69 28.82 31.07 30.7 12.73 1.38 25.08-2.84 36.11-8.95q16.89-9.35 29.54-20.16c12.09-10.32 16.05-23.14 14.95-38.82q-1.24-17.56-3.63-33.62c-2.22-14.9-6.99-31.29-15.9-43.32-18.15-24.5-49.91-33.82-79.23-28.97-26.21 4.33-49.51 19.08-68.57 37.9q-8.21 8.11-9.81 13.49-2.7 9.04 1.41 18.28c6.65 14.93 24.33 17.3 38.53 14.53 19.05-3.7 38.2-9.96 53.41 2.85a0.61 0.6 42.8 0 1 0.04 0.89zm516.02-37.64c-7.49 5.2-4.26 11.78 2.73 14.68q3.28 1.36 43.8 16.38c8.73 3.24 14.5-2.02 13.1-10.94-1.09-6.95-9.46-11.26-15.53-12.92q-11.42-3.13-14.05-4.66c-3.52-2.04-6.55-4.58-10.14-5.65q-10.78-3.23-19.91 3.11zm-385.77 29.68a0.4 0.4 0 0 0-0.24-0.38c-6.82-3.15-16.58-6.15-23.12-3.44-7.27 3.01-8.2 12.07-7.89 19.23q0.77 17.12 1.53 27.49c0.69 9.42 4.08 18.62 15.41 17.09 12.32-1.67 12.29-12.02 12.7-21.92q0.83-20.17 1.61-38.07zm31.43 57.22c1.59 9.99 14.97 7.28 21.16 5.03 5.8-2.1 5.8-6.41 5.6-11.59q-0.17-4.33-2.36-36.26c-0.48-7.01-5.62-10.83-12.3-11.65-5.77-0.7-11.27 1.96-14.4 6.71-3.27 4.96-2.97 11.71-2.09 17.95q2.85 20.21 4.39 29.81zm350.29-48.25q-0.41 3.31 1.33 6.19 5.42 8.98 23.05 36.93 4.36 6.91 11.49 5.31c4.49-1.01 8.28-4.77 9.15-9.22 3.46-17.62-14.97-25.65-25.29-35.68-2.78-2.71-5.53-6.84-8.98-8.36-3.91-1.73-10.15-0.11-10.75 4.83zm-260.42 16.59c-5.43-7.31-13.84-13.65-22.63-7.71-9.44 6.38-8.91 19.75-6.06 29.24 2.97 9.9 6.51 20.9 14.83 26.61 7.1 4.87 18.24 3.59 21.28-5.64 3.31-10.02-0.74-19.22-4.88-29.71q-1.07-2.72-2.13-11.75a2.26 2.22 24.1 0 0-0.41-1.04zm168.78-5.08c-8.62 3.61-9.02 14.36-6.37 21.98q3.66 10.55 5.31 18.17 2.81 13.01 1.76 29.29c-0.49 7.52 3.08 18.53 13.1 15.81 9.63-2.61 13.39-19.01 13.57-26.85 0.36-15.71-4.75-30-10.77-44.64-2.35-5.73-8.33-17.23-16.6-13.76zm-42.95 71.62c7.44 3.7 13.58-3.95 14.05-11.01q1.93-29.56-18.38-50.83c-5.13-5.36-14.36-10.4-19.28-1.17-2.83 5.33-1.8 11.84 0.66 17.15q9.04 19.61 18.88 40.32c1.03 2.17 2.14 4.58 4.07 5.54zm114.54-59.41q-7.04-5.66-14.28-8.07-5.52-1.83-8.55 2.29c-5.92 8.04 1.39 17.72 5.87 25.05 7.98 13.05 12.46 27.24 15.93 42.52 1.38 6.06 6.9 11.07 13.26 7.06 8.49-5.36 8.92-17.6 6.72-26.54-2.25-9.1-6.17-15.85-11.39-25.65-2.93-5.49-4.3-9.07-6.52-15.2a3.42 3.4 9.8 0 0-1.04-1.46zm-178.95 2.28q-5.62-4.73-12.65-6.57c-13.44-3.51-16.97 12.99-13.35 22.36q4.74 12.3 12.35 22.11c5.01 6.46 12.19 10.64 20.49 9.27 5.72-0.94 10.38-5.28 10.7-10.99 0.59-10.57-6-17.57-13.04-27.32q-0.76-1.05-3.5-7.5a3.68 3.64-81.6 0 0-1-1.36zm-119.39 244.08c3.44 6.28 11.57 11.24 17.52 4.18 4.93-5.84 3.65-13.74 0.83-20.2q-35.63-81.85-18.05-170.64c1.51-7.63-5.5-12.87-12.23-14.12q-10.73-1.99-18.19 5.68c-12.2 12.53-9.29 30.82-7.67 46.54 5.21 50.68 13.03 103.38 37.79 148.56zm-46.02-4.6c1.33-3.64 0.64-7.39-0.65-11.3q-4.54-13.85-6.02-19.12-17.66-63.2-8.54-127.94 0.54-3.88 1.16-7.08c1.2-6.21 2.41-12.82-2.33-17.47q-3.16-3.09-8.93-3.3c-7.58-0.29-13.71 2.68-17.24 9.71q-3.55 7.08-4.09 15.09c-0.94 13.88-0.54 23.3-0.32 41.17 0.49 39.03 4.81 79.21 23.91 114.01 3.95 7.2 9.99 13.15 18.59 10.38 1.77-0.56 3.9-2.59 4.46-4.15zm118.92-171.62a1.83 1.83 0 0 0-0.44-1.97c-12.41-12.17-29.5-15.34-40.65 0.69q-3.32 4.77-4.83 8.67c-8.45 21.79-10.82 46.22-7.96 69.39 4.53 36.72 21.12 71.06 48.27 96.29 4.87 4.51 13.55 12.12 19.53 5.78 3.01-3.19 1.51-10.12-0.27-13.61q-7.71-15.13-8.97-18.03c-20.15-46.5-22.55-99.75-4.68-147.21zm497.81 8.61q4.49 8.49-0.82 16.04-6.29 8.95-18.02 8.82-6.95-0.07-11.58-1.21-114.9-28.22-125.22-30.82c-12.61-3.17-22.79-5.4-34.63-5.22-14.52 0.22-28.33 6.16-35.65 18.97a0.43 0.43 0 0 0 0.31 0.64q120.9 19.52 233.83 60.77 10.1 3.68 20.24 3.38 12.58-0.37 18.34-11.02c5.17-9.57 0.87-24.52-3.15-33.8-0.94-2.19-1.43-4.3-3.45-5.78-11.25-8.24-25.33-17.31-39.88-21.17a0.28 0.28 0 0 0-0.32 0.4zm-439.42 1.77a1.15 1.14-52.8 0 0-0.14-1.06c-5.95-8.58-16.38-11.74-25.86-6.61-10.34 5.6-14.73 18.85-15.53 30.13-3.26 46.11 12.96 92.46 41.99 127.92 4.32 5.27 9.66 12.58 16.35 10.18 4.17-1.5 4.02-6.41 1.97-9.5-29.46-44.47-36.65-100.68-18.78-151.06zm-501.49 195.12a0.75 0.75 0 0 0 0.89-0.1q12.94-12.14 149.96-141.61 3.24-3.06 5.98-7.02c6.59-9.52 3.61-21.25-3.65-29.54-7.26-8.3-19.53-13-30.49-16.19a0.69 0.67-54 0 0-0.58 0.1q-46.81 34.08-95.45 73.71c-13.94 11.36-27.92 25.98-36.68 42.22-12.78 23.71-13.44 56.78 7.36 76.36q1.47 1.38 2.66 2.07zm250.57-189.28a0.69 0.69 0 0 0-0.51-0.8c-18.34-4.6-29.7 8.04-31.59 24.94q-0.87 7.73-0.67 10.73 2.41 37.41 12.14 72.92c4.56 16.62 10.79 31.83 24.12 42.88 3.06 2.53 9.26 4.83 12.99 2.6 8.14-4.89 1.6-16.3-1.55-23.51q-27.27-62.57-14.93-129.76zm474.18 92.24c6.59-2.74 6.59-10.68 2.86-15.69q-3.39-4.57-10.66-7.61-131.1-54.81-132.59-55.55-0.56-0.28-6.05-2.45-9.38-3.72-12.75-4.22-12.04-1.78-21.54 5.88c-5.97 4.81-9.1 13.52-9.43 20.77q-0.92 20.22 16.82 29.72 6.42 3.43 11.35 4.93 75.39 22.9 153.87 25.42 4.87 0.15 8.12-1.2zm-774.62 47.45a2.37 2.35 83.4 0 0-1.53-1.22q-115.86-29.4-234.72-44.8-61.44-7.96-120.74-13.24c-12.84-1.15-29.36-2.01-40.12 6.58-9.53 7.59-14.67 19.02-7.8 30.3 6.02 9.89 22.97 12.09 33.43 11.97 12.92-0.15 24.84-0.75 37.66-0.7q158.84 0.61 305.62 61.24 5.09 2.11 10.93 3.06c20.05 3.26 28.62-16.94 24.69-33.27q-2.45-10.2-7.42-19.92zm228.33-57.12q-11.78 4.22-21.05 10.29c-10.67 6.99-16.97 16.05-16.58 28.97q0.07 2.2 0.82 7.79 6.84 51.15 22.7 165.76c1.72 12.45 6.47 24.94 17.8 30.96 8.41 4.46 19.96 5.41 26.61-2.23 8.82-10.13 3.72-25.66-0.3-36.71-6.01-16.54-9.62-33.59-11.52-51.79-2.48-23.8-3.06-46.18-4.5-72-1.54-27.46-5.23-54.82-13.44-80.77a0.42 0.42 0 0 0-0.54-0.27zm529.74 28.72c-8.35-5.52-18.64-10.19-28.87-10.67-13.85-0.63-27.26 6.05-39.29 13.64q-34.17 21.55-61.24 49.76c-9.81 10.23-24.14 24.66-15.56 39.72 3.36 5.92 9.26 8.29 15.72 6.37 5.7-1.7 10.59-5.79 16.8-10.63q80.92-63 112.48-87.23a0.59 0.59 0 0 0-0.04-0.96zm-1374.2 194.7a2 1.98-70.5 0 0 1.3-0.63c55.08-58.51 116.27-111.45 181.54-158.47a2.89 2.88-14.6 0 0 1.17-1.99c1.65-14.16-12.94-23.64-25.19-24.3-12.99-0.69-26.65 8.61-35.95 16.79q-24.53 21.57-148.91 131.57-9.59 8.48-8.07 19.5c2.43 17.74 20.23 18.6 34.11 17.53zm1504.4-105.72q0.19 8.61 3.77 15.68c4.31 8.53 15.09 5.08 21.14 0.87q1.11-0.78 10.64-8.01 10.16-7.71 22.78-7.57c4.25 0.05 6.78 0.87 11.16 1.47q3.91 0.54 6.15-0.89c4.06-2.62 4.15-9.09 1.09-12.57-5.56-6.29-14.15-5.17-22.15-3.48q-28.18 5.91-54.05 13.78a0.74 0.74 0 0 0-0.53 0.72zm-265.5 39.05c10.68 13.13 29 16.29 45.17 13.68 21.19-3.41 38.83-15.63 58.93-22.8 49.29-17.57 98.55-0.89 144.38 19.82q5.07 2.29 11.13 3.05c8.52 1.08 15.37-4 15.21-12.8-0.15-8.22-5.34-14.27-11.57-18.78-56.68-40.9-130.99-35.42-194.88-18.38q-30.84 8.22-54.91 15.84c-7.39 2.34-13.57 4.99-14.07 13.68q-0.25 4.29 0.11 5.7a2.8 2.7-72.8 0 0 0.5 0.99zm-763.13-47.04q-3.97 0.48-4.23 0.53-191.54 36.18-350.16 148.85a0.69 0.67-33.6 0 0-0.19 0.9c6.74 11.27 18.6 17.41 31.48 19.14 29.33 3.92 53.13-14.13 75.87-29.56q63.76-43.27 140.24-63.29c20.11-5.26 38.38-9.52 56.57-17.71 21.41-9.64 37.13-24.44 46.38-46.33q3.56-8.41 4.45-12.07a0.37 0.37 0 0 0-0.41-0.46zm22.19 15.34c-0.46 9.21 10.22 14.99 17.46 18.1q169.44 73 233.76 100.75c11.86 5.12 24.85 9.8 37.61 8.92q18.68-1.3 25.34-18.46c3.26-8.41 2.17-18.07-5.81-23.36-22.65-15.03-47.86-24.81-74.53-32.97q-73.35-22.43-202.47-62.01c-9.13-2.8-30.62-5.56-31.36 9.03zm1137 52.92c3.61-13.66-8.84-23.33-20.52-26.18q-40.24-9.82-78.19 6.95c-5.12 2.27-5.33 6.7-1.52 10.33q8.37 7.97 19.53 6.7c6.27-0.7 9.67-1.67 18.35-3.98 18.32-4.88 36.43-4.05 54 3.12 2.73 1.11 5.46 2.82 7.55 3.5a0.63 0.63 0 0 0 0.8-0.44zm-1736 34.75q19.48-23.1 49.92-23.32a2.21 2.21 0 0 0 1.4-0.5c8.15-6.62 11.96-18.91-1.57-22.81q-4.8-1.38-9.68-0.97c-18.65 1.59-40.34 11.81-43.06 32.68q-1.03 7.9 2.35 14.84a0.39 0.38 52.1 0 0 0.64 0.08zm1624.3-27.94c-7.18-0.28-19.68-0.4-19.91 9.28-0.16 6.36 4.08 11.13 9.16 14.44q20.05 13.06 43.95 11.98c3.99-0.18 9.26-1.57 10.67-5.62 2.05-5.93-4.51-10.18-9.42-10.83q-8.34-1.12-11.35-2.12-13.78-4.62-21.75-16.38a1.72 1.69 73.6 0 0-1.35-0.75zm-1378.1 41.43c2.28-13.29-6.07-23.77-20-22.51q-16.63 1.51-31.47 9.27c-10.21 5.33-18.46 16.3-17.81 28.34 0.32 5.99 5.11 10.44 10.85 5.74 2.53-2.07 5.63-5.63 8.51-7.81q17.23-12.99 38.97-13.51 5.45-0.13 10.4 0.86a0.47 0.47 0 0 0 0.55-0.38zm-261.68 42.89q2.47 1.85 5.94 3.28c30.02 12.32 62.63-5.3 67.58-37.55a2.11 2.05-53 0 0-0.14-1.13c-4.47-10.63-11.32-21.61-24.3-16.84-4.84 1.79-8.69 6.51-9.64 11.45q-1.68 8.81-2.34 10.61c-5.71 15.69-22.26 24.22-37.05 29.83a0.2 0.2 0 0 0-0.05 0.35zm129.49-31.47q-9.2-1.39-20.56-3.99-4.38-1.01-9.45 0.65c-11.02 3.61-8.57 14.27-7.4 22.79q0.97 7.02-3.22 14.59c-9.22 16.65-29.44 21.09-46.18 26.49q-4.02 1.3-6.97 3.61c-3.36 2.64-1.34 5.91 1.8 7.77 12.18 7.22 27.08 5.2 39.84 0.93 25.19-8.44 54.08-25.59 55.66-55.69q0.46-8.89-2.96-16.72a0.73 0.73 0 0 0-0.56-0.43zm119.28 55.31q-6.28-6.94-12.71-14.42c-4.98-5.82-15.17-8.68-20.03-1.19-2.14 3.3-1.91 9.8-1.81 13.72 0.24 9.86-6.13 16.47-15.03 20.21-6.19 2.61-13.3 3.36-19.87 4.89-4.92 1.14-10.56 5.72-5.91 11.02 3.85 4.41 12.42 6.17 18.07 6.42 26.2 1.13 46.06-18.37 57.39-39.82a0.73 0.73 0 0 0-0.1-0.83zm-23.91 48.88c7.5 15.47 24.79 19.63 40.86 16.24 24.69-5.19 48.32-22.96 47.64-50.6q-0.24-10.19-5.04-18.5a3.18 3.17 81.8 0 0-2-1.5q-5.18-1.25-11.62-1.55-12.95-0.6-17.61 10.76c-2.62 6.37 0.63 14.86 0.93 19.36 0.69 10.32-8.57 17.08-17.74 19.6-11.64 3.2-24.21 1.01-35.11 5.39a0.58 0.58 0 0 0-0.31 0.8z"/><path d="m543.48 256.04a2.35 2.35 0 0 1 0 2.26c-9.27 17.06-28.96 26.76-47.3 17.42-12.12-6.17-17.49-18.87-13.81-32.09 3.14-11.28 14.72-16.77 25.99-17.64 6.9-0.53 11.14 3.06 16.07 7.16q11.97 9.94 19.05 22.89z"/><path d="m1526 338.55c-9.94-4.78-16.58-11.62-18.52-23q-1.64-9.63 0.45-18.92c4.06-17.98 19.23-24.87 36-17.5 11.39 5 21.66 9.84 28.67 18.77 13.38 17.05 5.14 33.67-10.87 44.16-12.45 8.17-23.76 2.25-35.73-3.51z"/><path d="m463.43 285.22a2.71 2.69 65.9 0 0 1.66 0.64q2.97 0.09 3.94 0.18c4.96 0.48 9.16 3.77 11.32 8.12 3.69 7.44-0.39 16.44-7.01 20.7q-5.39 3.47-12.56 2.91-12.5-0.97-19.75-11.58c-4.87-7.12-5.87-18.85 2.44-24.16 6.61-4.23 14.33-1.58 19.96 3.19z"/><path d="m970.28 396.23a0.41 0.4 37.1 0 1 0.11 0.78q-26.91 10.12-53.52 17.65-4.05 1.14-6.99 0.7c-85.6-12.76-168.89-26.23-250.06-46.21q-23.79-5.86-45.82-12.39c-9.7-2.87-19.46-7.42-25.64-15.55-5.86-7.7-7.93-18.75-1.78-26.82 6.27-8.23 17.68-11.45 27.73-9.96 9.99 1.47 18.51 5.18 28.31 9.46q5.82 2.54 14.11 5.92 150.73 61.58 313.55 76.42z"/><path d="m1617 369.36a1.1 1.08 64.7 0 1-1.28-0.47c-3.44-5.58-1.68-12.74 1.49-17.88 5.27-8.55 11.14-16.33 10.02-25.79a7.36 7.35 29.7 0 0-0.59-2.15c-1.25-2.85-4.43-6.85-1.75-10.31a1.57 1.56 12.7 0 1 0.91-0.57q2.54-0.54 4.67 1.33c12.38 10.88 14.26 29.01 5.85 42.85-2.67 4.39-6.6 7.88-10.77 11.43a2.34 2.3 25.5 0 1-1.61 0.55q-3.43-0.19-6.94 1.01z"/><path d="m1350.6 359.81a2.58 2.51-50.8 0 1-0.15-1.71q6.14-23.32 28.1-32.14c2.86-1.14 8.24-0.8 9.07 3.23 1.43 6.89-6.39 13.03-10.86 17.33-4.5 4.33-6.03 8.25-7.94 14.11-1.61 4.94-6.62 11.69-12.2 7.13q-3.75-3.06-6.02-7.95z"/><path d="m1195.7 334.15q17.46-2.72 28.26 9.69c5.66 6.5 7.45 14.84 5.39 23.21-4.71 19.17-23.63 28.71-42.11 21.48-15.49-6.05-24.57-22.3-20.84-38.44q3.84-16.65 19.86-20.64c2.59-0.64 11.9-1.34 8.99 4.07a0.43 0.43 0 0 0 0.45 0.63z"/><path d="m1142 394.92c11.66 9.27 4.84 31.11-10.77 30.14q-5.42-0.34-10.01-3.99-4.6-3.66-6.15-8.86c-4.46-15 15.27-26.56 26.93-17.29z"/><path d="m1222.8 448.32a2.06 2.04-43.8 0 1-0.06 2.37c-6.82 9.18-16.9 15.18-28.52 14.41-11.96-0.8-22.03-8.92-22.92-21.55-0.89-12.82 8.41-22.58 21.64-17.99q18.86 6.54 29.86 22.76z"/><path d="m1829.4 439.91c7.45 4 13.22 9.86 10.42 18.89-2.52 8.09-13.26 10.93-20.16 6.41q-4.87-3.2-5.71-9.95c-1.09-8.7 5.38-15.79 14.09-15.7a2.87 2.8 58.7 0 1 1.36 0.35z"/><path d="m1865.6 494.5q9.6-0.89 13.36 6.43 2.7 5.25 0.47 11.82c-2.78 8.16-10.17 12.84-17.96 15.72-10.94 4.05-22.05 0.8-25.59-11.22-3.75-12.72 2.69-28.05 16.21-31.63 7.01-1.85 10.94 1.71 12.74 8.35a0.72 0.72 0 0 0 0.77 0.53z"/><path d="m525.52 659.18c-15.64-0.73-25.35-21.13-10.6-30.98 5.29-3.53 11.9-3.39 14.29 3.44q4.75 13.57-1.83 26.46a1.98 1.98 0 0 1-1.86 1.08z"/><path d="m717.39 685.32a0.6 0.6 0 0 1-0.55-0.77c5.16-17.1 24.07-21.57 40.25-18.39q18.05 3.54 35.01 10.5c9.01 3.69 19.19 10 24.31 18.24 9.04 14.55 4.48 30.91-6.78 42.84-9.73 10.29-22.7 15.79-36.14 21.37a2.7 2.68-49.8 0 1-1.6 0.14q-14.37-3.15-35.22-6.86-3.06-0.54-6.28-2.12c-4.54-2.24-6.33-7.42-3.43-11.56 5.08-7.25 12.36-6.82 21.53-7.72 13.24-1.3 17.87-12.03 14.54-23.94-5.47-19.55-28.36-20.92-45.64-21.73z"/><path d="m556.03 675.09c3.06 1.22 2.84 5.02 5.08 6.99 7.96 7.03 10.82 17.54 6.68 27.22-2.63 6.14-8.88 11.2-15.67 12.74q-11.81 2.68-20.34-5.72c-10.61-10.44-8.69-25.32 1.82-34.8 4.82-4.35 15.4-9.23 22.43-6.43z"/><path d="m911.31 684.97c17.35 0.79 18.36 28.92-1.27 28.04-19.62-0.89-16.08-28.82 1.27-28.04z"/><path d="m885.07 729.94c2.93 1.62 6.48 2.19 9.15 4.65 7.38 6.8 6.49 16.94-0.97 22.94-7.06 5.69-16.43 5.38-24.06 1.17-7.62-4.21-12.88-11.98-11.82-20.99 1.1-9.5 9.21-15.66 18.9-13.04 3.5 0.95 5.88 3.66 8.8 5.27z"/><path d="m342.45 791.37a1.5 1.5 0 0 1-0.52 1.56c-8.16 6.48-20.65 7.13-27.54-1.83-4.03-5.24-4.91-12.33-0.9-17.81 2.92-3.99 9.53-4.16 13.42-1.96q12.16 6.89 15.54 20.04z"/><path d="m1983.2 911.68a1.7 1.7 0 0 1-0.4 2c-7.24 6.53-18.85 8.15-25.48 0.08q-6.94-8.42-1.31-16.58c2.33-3.39 6.31-5.11 10.33-4.05a3.5 3.47 69.2 0 1 1.06 0.48q10.43 6.88 15.8 18.07z"/><path d="m1991.4 939.7c5.75-4.01 11.26-2.96 17.16 0.9q3.76 2.46 8.01 3.65a4.67 4.61 68.2 0 1 1.26 0.55c13.3 8.4 14.2 24.92 3.82 36.17q-9.83 10.65-24.87 11.11c-9.93 0.3-19.36-4.83-23.29-14.15-5.87-13.93 6.96-30.61 17.91-38.23z"/><path d="m1949.8 943.18c2.97 0.07 7.81 6.81 9.78 9.97 3.05 4.88 4.49 10.34 1.94 15.45-3.82 7.63-15.22 8.41-20.7 3.16q-5.59-5.36-5.04-13.76 0.58-9.02 9.16-14.16 1.26-0.75 4.86-0.66z"/><path d="m1250.4 1061.6c-1.15-12.48 7.25-21.84 18.34-26.06 8.73-3.33 13.17 0.38 20.36 6.18 8.17 6.58 12.23 17.43 4.72 26.68q-8.84 10.91-23.5 10.7c-9.96-0.14-19-7.42-19.92-17.5z"/><path d="m1630.6 1060.8a0.88 0.87 36.2 0 1 0.2 1.26c-11.49 14.91-27.11 26.37-45.5 30.53-7.51 1.7-15.32 2.82-23.03 3.32q-33.32 2.18-65.77 2.15c-37.8-0.03-76.57-4.87-110.29-22.98-7.17-3.85-13.69-8.62-16.75-16.16-2.25-5.54-0.84-13.57 4.09-17.6 6.15-5.04 13.92-1.24 19.95 3.22q13.31 9.83 26.35 14.37c38.62 13.45 81.06 4.43 120.21-1.77 31.15-4.93 60.22-6.67 88.72 2.84q1.18 0.39 1.82 0.82z"/><path d="m747.64 1095.4c-1.46 10.64-13.66 15.26-23.18 14.81q-7.88-0.38-18.47-2.14-11.13-1.84-29.17-2.78c-30.31-1.57-66.06 6.07-87 29.79-5.88 6.66-12.11 15.39-20.7 21.49q-3.79 2.7-9.5 3.82c-19.83 3.92-26.66-15.53-16.98-29.78q3.27-4.81 7.62-8.62 19.88-17.43 42.08-32.17c32.32-21.45 70.18-34.79 109.23-25.43q20.49 4.91 36.72 19.05c3.02 2.63 9.96 7.47 9.35 11.96z"/><path d="m1328 1082.2q0.82 0.38 1.49 1.17c4.66 5.54 7.78 13.55 5.51 20.34-2.74 8.17-13.11 12.67-21.01 9.05-7.89-3.62-11.25-14.41-6.85-21.82 3.66-6.15 11.77-9.02 19.01-9.1q1.03-0.02 1.85 0.36z"/><path d="m1283.7 1113.6c-4.03 6.91-13.36 11.31-20.54 5.71-6.4-4.98-3.43-13.37 2.67-16.69 4.74-2.58 14.62 5.87 17.72 9.41a1.35 1.35 0 0 1 0.15 1.57z"/><path d="m831.24 1121.5c10.52 1.21 15.26 9.48 12.26 19.61q-3.83 12.97-11.9 20.94c-9.32 9.23-23.11 8.02-30.73-2.31-5.41-7.33-5.28-17.81-0.79-25.69q6.26-10.97 19.25-12.98 3.5-0.54 11.91 0.43z"/><path d="m1868.6 1142.9a4.01 4 30.7 0 1 0.8 3.13c-1.09 6.57-5.27 12.4-11.38 14.86-9.65 3.87-19.84-1.84-22.61-11.37-1.89-6.49 2.07-15.89 10.1-17.05q1.89-0.27 5.66 0.85c7.06 2.11 12.72 3.58 17.43 9.58z"/><ellipse transform="rotate(-80.8 1077 131.91)" rx="13.31" ry="12.39"/><circle cx="1791.7" cy="1182.3" r="19.06"/><path d="m436.1 1253.6a0.68 0.67-4.4 0 1 0.52 0.44q2.34 7.28 0.28 13.79c-2.3 7.25-9.38 9.46-15.39 4.68-5.01-3.99-5.76-11-1.1-15.61 3.79-3.75 10.53-4.12 15.69-3.3z"/><path d="m327.47 1260.3q6.51-2.98 11.11 1.46c3.65 3.52 2.96 9.41 0.35 12.96q-5.8 7.85-16 6.27c-7.93-1.23-12.97-9.77-10.42-17.36 2.07-6.16 8.69-8.15 13.82-3.5a1.05 1.04-36.2 0 0 1.14 0.17z"/><path d="m400.76 1277.9c4.67 13.52 0.02 28.69-13.62 34.44q-7.58 3.19-15.06 1.02c-10.9-3.16-18.19-15.69-13.45-26.78q2.7-6.33 8.67-10.34 13.32-8.97 28.38-2.18 2.88 1.3 4.29 2.61a3.06 3 12.9 0 1 0.79 1.23z"/></g></g></g><g transform="translate(302.59 464.03)"><g fill="#fff"><path d="m41.052-96.396v11.841h-76.18v82.101h62.037v-9.4103h14.473v142.09h49.009v14.144h75.651v-13.815h31.248l6.9071-4.2762-4.9335-17.762 5.3449-2.9884-5.8384-17.733 6.0849-3.1249-6.3314-18.09-1.2697 0.08217-0.29301-163.06zm49.376 106.48h59.065v56.73h-59.065z"/><path d="m166.14 129.8v10.422h8.1424l5.8625 11.562h11.236l5.8625-9.7708h29.801l-0.16285 4.234 7.9795 17.099 9.7708-0.6514 0.2142 49.557-2.9971 0.0943 0.0437 15.441 18.045-0.18756-0.20264-10.623 5.0531-0.25515 2.2888-2.6942 16.525 0.361 2.5878 4.9603 10.995 0.27867 3.3743-4.7617 31.263 0.65803 2.4277-2.5476 9.0336-0.338-0.94259-93.259-49.18-1.3028 0.48854-12.865-37.292-0.65139-0.97708 12.539-53.903-0.81424 4.8854 17.588-14.168 0.6514-4.8263 8.6165-5.2702-2.1026-4.234-6.8396 0.3257-3.9083z"/><rect transform="rotate(90)" x="149.04" y="-310.57" width="45.172" height="37.487" fill-opacity=".7" style="paint-order:stroke markers fill"/></g><g stroke="#000"><g fill="#fff" stroke-width=".26458px"><g transform="rotate(90 186.81 87.941)"><path d="m181.04 124.49v-2.003c1.3719 0.0742 2.0393 0.74156 2.0022 2.0022"/><path d="m185.16 124.49v-2.0022c-1.3719 0.0742-2.0393 0.74156-2.0022 2.0022"/></g><path d="m156.51 80.521v2.0022c1.3719-0.0742 2.0393-0.74156 2.0022-2.0022"/><path d="m166.06 129.75v4.0044"/><path d="m166.06 137.68v4.0044"/><g transform="matrix(0 1 1 0 41.032 -120.66)"><path d="m181.04 124.49v-2.003c1.3719 0.0742 2.0393 0.74156 2.0022 2.0022"/><path d="m185.16 124.49v-2.0022c-1.3719 0.0742-2.0393 0.74156-2.0022 2.0022"/></g></g><g><path d="m149.9 44.991h24.56v12.597h-8.9637v2.7993" fill="none"/><path d="m153.84 59.588h6.6651" fill="none"/><path d="m154.36 122.4v-2.0022c-1.3719 0.0742-2.0393 0.74156-2.0022 2.0022" fill="#fff" stroke-width=".26458px"/><path d="m162.13 122.45v-2.0022c-1.3719 0.0742-2.0393 0.74156-2.0022 2.0022" fill="#fff" stroke-width=".26458px"/></g><g fill="none"><g><path d="m157.63 122.79v21.208"/><g><path d="m40.809-55.975v25.13"/><path d="m40.809-14.17v144.82"/><path d="m40.809-96.72v86.278"/><path d="m40.511-96.107h156.49"/><path d="m196.94-96.484v163.73"/><path d="m196.78 66.866h1.4944l6.1351 17.637-5.8991 3.0675 5.5845 17.776-5.2699 3.1462h0.0787l5.0339 17.619-6.9216 4.09h-30.99l0.0204 0.45347"/><path d="m149.9 128.75v15.456h-59.693v-8.652"/><path d="m98.62 144.28h-8.416v-14.158h-49.552"/><path d="m-34.976-58.744 0.03096-25.249 75.676-0.53321v9.6745h-14.315v-9.5959m14.394 72.756h-14.394v9.0453l-61.287-0.16111-0.1333-58.869"/><path d="m40.809-53.851h-14.708v21.237h14.63"/></g></g><rect transform="rotate(90)" x="-84.961" y="-170.69" width="83.153" height="90.528" stroke-linecap="round"/><rect transform="rotate(90)" x="9.7139" y="-149.9" width="57.12" height="59.627" stroke-linecap="round"/><g><g><path d="m149.95 80.43v43.916"/><path d="m155.8-96.01v11.09"/><path d="m90.419 66.874 59.512 0.02357v13.609"/></g><path d="m150.22 80.104h15.828" stroke-width="1.2257"/></g></g><g transform="rotate(90 157.24 57.565)" fill="none" stroke-width=".26458px"><path d="m187.8 60.131h18.68"/><path d="m206.13 60.131v4.0507"/><path d="m205.53 60.131v4.0507"/><path d="m204.93 60.131v4.0507"/><path d="m204.33 60.131v4.0507"/><path d="m203.73 60.131v4.0507"/><path d="m203.13 60.131v4.0507"/><path d="m202.53 60.131v4.0507"/><path d="m201.93 60.131v4.0507"/><path d="m201.33 60.131v4.0507"/><path d="m200.73 60.131v4.0507"/><path d="m198.33 60.131v4.0507"/><path d="m198.93 60.131v4.0507"/><path d="m199.53 60.131v4.0507"/><path d="m200.13 60.131v4.0507"/><path d="m197.73 60.131v4.0507"/><path d="m197.13 60.131v4.0507"/><path d="m196.53 60.131v4.0507"/><path d="m195.93 60.131v4.0507"/><path d="m195.34 60.131v4.0507"/><path d="m194.74 60.131v4.0507"/><path d="m194.14 60.131v4.0507"/><path d="m193.54 60.131v4.0507"/><path d="m192.94 60.131v4.0507"/><path d="m192.34 60.131v4.0507"/><path d="m191.74 60.131v4.0507"/><path d="m191.14 60.131v4.0507"/><path d="m190.54 60.131v4.0507"/><path d="m189.94 60.131v4.0507"/><path d="m189.34 60.131v4.0507"/><path d="m188.74 60.131v4.0507"/><path d="m188.14 60.131v4.0507"/><path d="m187.8 64.302h18.68"/></g><g fill="none"><g><g><path d="m165.98 140.39h8.1052l5.9146 11.829h11.172l5.9146-9.8576h47.755"/><path d="m201.46 116.29 141.07 3.2859"/><path d="m292.81 118.31 0.43811-12.748-37.24-0.65717-0.65718 12.705"/><path d="m342.32 119.11-0.21906 30.918"/><path d="m342.1 150.03v14.02"/><path d="m244.74 142.24 0.0161 69.88"/><path d="m226.73 142.4-0.0781 4.123 8.3242 17.087 9.8576-0.65718"/><path d="m177.9 130.06 0.09 5.1298 3.7798 5.9397 5.3098 1.8899 5.0398-8.6396 13.949-0.09-2.1599-8.6396"/></g><path d="m166.2 144.1v-4.219" stroke-width=".86263"/></g><path d="m253.43 212.22-11.664 0.0666 0.13331 15.596 17.729-0.1333 0.0667-11.131 4.9989 0.0666 2.5328-2.7993 16.396 0.39989 2.5328 5.0655h10.798l3.4659-4.6656 31.46 0.66652 2.6661-2.7994 8.798 0.13333-1.1997-48.789"/><path d="m165.69 123.36v-43.88" stroke-width="1.0517"/><rect transform="rotate(90)" x="122.85" y="-165.78" width="21.162" height="15.751" stroke-linecap="round"/><path d="m165.83 80.249v-15.197h30.896"/></g></g></g></svg>
